<svg width="76" height="71" viewBox="0 0 76 71" fill="none" xmlns="http://www.w3.org/2000/svg">
<path d="M4.67725 52.459C2.55067 51.8679 1.02019 50.6782 0.782988 48.6807C0.502469 46.3145 0.33128 43.8894 1.01195 41.546C1.74419 39.0316 3.48711 37.2261 6.02003 36.0686C6.2263 35.9755 6.43256 35.8786 6.63882 35.7931C6.65739 35.7931 6.66564 35.755 6.68008 35.7341C3.29323 32.6324 2.96733 29.1772 5.84058 26.6495C6.45163 26.1137 7.17302 25.6961 7.96214 25.4214C8.75126 25.1468 9.59212 25.0206 10.435 25.0503C11.278 25.0801 12.1059 25.2652 12.8699 25.5947C13.6339 25.9242 14.3184 26.3914 14.8832 26.9688C16.9727 29.0993 17.4202 33.1323 13.6456 35.7227C13.7425 35.7934 13.8452 35.857 13.9529 35.9128C17.4883 37.418 19.4643 39.9458 19.6953 43.5359C19.8016 45.1185 19.7906 46.706 19.6623 48.2873C19.4973 50.2353 18.2824 51.5695 16.3043 52.2461C15.7866 52.4229 15.6629 52.6414 15.6691 53.1071C15.6938 55.2167 15.6979 57.3263 15.6691 59.434C15.6691 59.9414 15.8753 60.1429 16.3374 60.3843C17.2841 60.8898 18.2762 61.4068 19.0332 62.1157C20.8298 63.8015 20.7617 66.0612 18.994 67.7774C17.577 69.1515 15.7681 69.868 13.8003 70.2481C10.1185 70.9608 6.52537 70.7613 3.17977 69.0413C2.35609 68.6063 1.62562 68.0363 1.02433 67.3593C-0.39477 65.7704 -0.353526 63.7368 1.20789 62.2601C2.04945 61.4657 3.19009 60.9468 4.17603 60.2797C4.3823 60.1372 4.64631 59.8882 4.65044 59.6868C4.68963 57.2959 4.67725 54.9031 4.67725 52.459ZM4.67725 50.6287V49.7754C4.67725 47.4289 4.67725 45.0848 4.67725 42.7434C4.67725 42.5305 4.59682 42.253 4.71233 42.1181C4.95365 41.8273 5.26924 41.4624 5.61163 41.4035C6.10667 41.3161 6.46351 41.6639 6.51713 42.1637C6.53982 42.3747 6.51713 42.5894 6.51713 42.8023C6.51713 49.4872 6.51713 56.1714 6.51713 62.855C6.51713 63.0678 6.50476 63.2826 6.51713 63.4936C6.58726 64.2177 7.13592 64.7042 7.8599 64.7137C8.58389 64.7232 9.14905 64.2462 9.23981 63.5278C9.25875 63.3148 9.26427 63.1009 9.25631 62.8873V50.7238C9.25631 50.4862 9.17381 50.1916 9.2955 50.0263C9.50177 49.7412 9.81529 49.3915 10.1206 49.3478C10.3866 49.3136 10.793 49.6234 10.9889 49.8761C11.1436 50.0662 11.0982 50.4216 11.0982 50.701C11.0982 54.7555 11.0982 58.81 11.0982 62.8645C11.0982 63.0774 11.0982 63.2921 11.0982 63.505C11.1031 63.8286 11.2465 64.1374 11.4972 64.3641C11.7479 64.5908 12.0856 64.7172 12.4369 64.7156C13.1671 64.7156 13.7137 64.2329 13.7817 63.5088C13.8044 63.2503 13.7962 62.988 13.7962 62.7277C13.7962 56.1137 13.7962 49.5005 13.7962 42.8878C13.7962 42.6046 13.7178 42.253 13.8663 42.0554C14.0849 41.7665 14.4686 41.4263 14.7966 41.4149C15.0606 41.4054 15.3989 41.814 15.5989 42.101C15.7186 42.2701 15.6443 42.5609 15.6443 42.7985C15.6443 45.1438 15.6443 47.4878 15.6443 49.8305C15.6443 50.0719 15.6691 50.3114 15.6876 50.6516C17.0717 50.0339 17.7915 49.1311 17.8225 47.8673C17.8899 46.3045 17.8706 44.7396 17.7647 43.1786C17.4594 39.7177 14.349 37.0968 10.4918 36.9334C6.6347 36.7699 3.16122 39.1646 2.63525 42.6179C2.35473 44.4558 2.42898 46.3544 2.51767 48.2169C2.61874 49.3421 3.3881 50.1574 4.67932 50.6287H4.67725ZM10.1494 34.9302C10.7357 34.9355 11.3172 34.8338 11.8606 34.631C12.404 34.4282 12.8984 34.1284 13.3154 33.7487C13.7325 33.369 14.0638 32.9171 14.2904 32.4189C14.517 31.9207 14.6343 31.3861 14.6357 30.8459C14.6363 29.7668 14.1735 28.7313 13.3485 27.9654C12.5234 27.1995 11.4031 26.7654 10.2319 26.7578C9.06128 26.7451 7.9328 27.1601 7.09326 27.9119C6.25372 28.6637 5.77144 29.6913 5.75189 30.7699C5.74096 31.3099 5.84639 31.8466 6.06205 32.3488C6.27772 32.851 6.59935 33.3088 7.00833 33.6957C7.41731 34.0826 7.90552 34.391 8.44469 34.6029C8.98386 34.8148 9.56329 34.926 10.1494 34.9302ZM4.67932 62.0986L4.49162 61.9674C3.87283 62.4255 3.17153 62.8284 2.63525 63.3586C1.64312 64.3222 1.62661 65.5196 2.61668 66.4812C3.16243 67.0135 3.80633 67.4524 4.51844 67.7774C7.43501 69.0755 10.5001 69.2104 13.6188 68.5376C15.0874 68.224 16.4652 67.7166 17.5646 66.7188C18.3278 66.027 18.7444 65.1984 18.3402 64.2139C17.8967 63.1287 16.9231 62.5395 15.6876 61.9636C15.7516 63.5031 15.8238 64.9513 14.3675 65.8674C12.9113 66.7834 11.5087 66.544 10.1927 65.6089C10.0917 65.6697 10.0257 65.7039 9.9638 65.7476C8.8871 66.5079 7.71346 66.6656 6.49444 66.1125C5.24035 65.5424 4.6855 64.5522 4.68963 63.2807C4.68138 62.8816 4.67932 62.4882 4.67932 62.091V62.0986Z" fill="#AE1C1F"/>
<path d="M60.346 52.516C59.7994 52.2841 59.2858 52.115 58.8258 51.8641C57.4686 51.1229 56.5053 50.0263 56.4146 48.5781C56.2888 46.5502 56.1877 44.4843 56.4703 42.483C56.8828 39.5447 58.766 37.4275 61.6434 36.0857C61.8682 35.9793 62.1033 35.8957 62.4292 35.7493C60.5234 34.438 59.4755 32.7674 59.5663 30.595C59.588 29.8223 59.7836 29.0621 60.1408 28.3626C60.498 27.6631 61.0089 27.0397 61.6413 26.5317C62.2528 26.0215 62.9675 25.6274 63.7444 25.372C64.5214 25.1167 65.3454 25.0051 66.1693 25.0435C66.9931 25.082 67.8007 25.2699 68.5456 25.5963C69.2906 25.9228 69.9583 26.3814 70.5107 26.946C73.0642 29.5345 72.6228 32.8757 69.3886 35.6885C70.257 36.2055 71.1996 36.6559 71.9999 37.2641C74.2048 38.9404 75.3207 41.1374 75.3847 43.7735C75.4094 44.8872 75.3847 46.0009 75.3847 47.1146C75.3847 50.0187 74.3534 51.4137 71.3563 52.4742C71.3563 54.122 71.3563 55.7982 71.3563 57.4745C71.3563 58.2556 71.0923 59.1603 71.4347 59.7856C71.7524 60.3672 72.7177 60.6446 73.3901 61.0647C73.6691 61.2389 73.9357 61.4293 74.1883 61.6348C76.6429 63.6342 76.5954 66.3729 74.0687 68.2868C72.4764 69.4993 70.5994 70.1113 68.5924 70.4059C65.4221 70.8696 62.3137 70.67 59.4178 69.3207C58.4148 68.8476 57.5138 68.21 56.759 67.4391C55.2884 65.9301 55.2574 63.8889 56.7446 62.3989C57.5903 61.5531 58.7784 61 59.7973 60.2968C60.0036 60.1486 60.313 59.9167 60.3171 59.7267C60.3584 57.3149 60.346 54.8993 60.346 52.516ZM60.346 50.6687V49.7659C60.346 47.4434 60.346 45.1203 60.346 42.7966C60.346 41.7798 60.6244 41.3503 61.2721 41.3579C61.9198 41.3655 62.1982 41.8045 62.1982 42.8137C62.1982 49.4745 62.1982 56.1353 62.1982 62.7961C62.1864 63.1033 62.2016 63.4109 62.2436 63.7159C62.2963 63.9991 62.4575 64.2555 62.6978 64.4385C62.9381 64.6216 63.2416 64.7192 63.5534 64.7137C63.8652 64.7171 64.1683 64.6188 64.4091 64.4363C64.6499 64.2537 64.8129 63.9985 64.8693 63.7159C64.9024 63.4567 64.9128 63.1955 64.9003 62.9348C64.9003 58.8575 64.9003 54.7808 64.9003 50.7048C64.9003 50.4235 64.8528 50.0776 65.0075 49.878C65.2035 49.6253 65.6098 49.3079 65.8738 49.3497C66.1874 49.3915 66.4926 49.7431 66.7092 50.0263C66.8289 50.1916 66.7484 50.4862 66.7484 50.7238V62.8873C66.738 63.1238 66.7463 63.3608 66.7732 63.5962C66.8073 63.9066 66.9668 64.1939 67.2202 64.4009C67.4735 64.6079 67.8021 64.7196 68.1407 64.7137C68.4779 64.7115 68.8021 64.5934 69.0497 64.3825C69.2973 64.1715 69.4506 63.883 69.4793 63.5734C69.4986 63.3375 69.5034 63.1008 69.4938 62.8645C69.4938 56.0859 69.4938 49.3072 69.4938 42.5286C69.4938 41.7684 69.8238 41.3712 70.4137 41.3731C71.0036 41.375 71.3419 41.795 71.344 42.5343C71.344 44.5958 71.344 46.6579 71.344 48.7206V50.5603C72.6125 50.2543 73.4829 49.1767 73.5097 47.8843C73.5359 46.5324 73.5359 45.1811 73.5097 43.8305C73.4499 40.2194 70.5994 37.399 66.6329 36.9885C62.7902 36.5875 59.1001 38.8168 58.4153 42.31C58.0234 44.3075 58.1761 46.4114 58.2565 48.4621C58.3184 49.458 59.1476 50.1536 60.3522 50.6687H60.346ZM65.814 34.9302C66.4001 34.9355 66.9815 34.8336 67.5246 34.6305C68.0676 34.4274 68.5616 34.127 68.9779 33.7468C69.3941 33.3666 69.7244 32.9141 69.9496 32.4155C70.1749 31.917 70.2905 31.3822 70.29 30.8421C70.2905 29.7633 69.8277 28.7282 69.0025 27.9629C68.1773 27.1976 67.057 26.7644 65.8862 26.7578C65.2998 26.7528 64.718 26.8549 64.1746 27.0582C63.6312 27.2614 63.1368 27.5619 62.7201 27.9421C62.3034 28.3224 61.9725 28.775 61.7466 29.2737C61.5208 29.7724 61.4044 30.3074 61.4041 30.8478C61.4073 31.9263 61.8723 32.9601 62.6981 33.7245C63.5238 34.4889 64.6436 34.9222 65.814 34.9302ZM60.3542 62.0891C60.2797 62.0873 60.2051 62.0918 60.1315 62.1024C58.8732 62.6725 57.6996 63.3814 57.5903 64.803C57.481 66.2247 58.5762 66.9811 59.7519 67.5855C62.0992 68.7942 64.6528 69.0793 67.2888 68.8512C69.2298 68.684 71.0923 68.2468 72.6847 67.1407C73.6273 66.4888 74.3802 65.6735 74.077 64.4952C73.7469 63.2142 72.6331 62.5832 71.3832 61.9769C72.0576 66.141 68.1221 67.4201 65.8285 65.6165L65.5253 65.8065C64.4486 66.5192 63.2955 66.6466 62.1116 66.0973C60.9276 65.5481 60.3584 64.6111 60.3542 63.3871C60.3522 62.969 60.3542 62.549 60.3542 62.0815V62.0891Z" fill="#AE1C1F"/>
<path d="M34.5506 11.3729C31.0978 8.08492 30.807 4.72094 33.7256 2.20271C34.3316 1.67847 35.0445 1.27032 35.8231 1.00194C36.6016 0.733554 37.4302 0.610284 38.2609 0.639279C39.0915 0.668274 39.9076 0.848957 40.6619 1.17085C41.4162 1.49273 42.0935 1.94942 42.6548 2.51441C44.7958 4.63162 45.297 8.66269 41.4667 11.3444L41.9885 11.5838C45.5259 13.1708 47.3906 15.7821 47.5576 19.3932C47.6216 20.7236 47.5886 22.054 47.5576 23.3748C47.5226 25.475 46.2355 27.1569 44.0759 27.862C43.6077 28.016 43.5149 28.225 43.5169 28.6223C43.5334 30.7794 43.5376 32.9365 43.5169 35.0841C43.5169 35.5232 43.6758 35.7132 44.0924 35.9394C45.0577 36.4601 46.0746 36.9828 46.8522 37.705C48.6612 39.3832 48.5972 41.6486 46.8213 43.361C45.3032 44.8264 43.3602 45.5505 41.2522 45.904C37.6405 46.5083 34.1299 46.2841 30.8626 44.5736C29.6746 43.954 28.6948 43.114 28.1688 41.9242C27.55 40.4988 27.8512 39.1798 28.8557 37.9901C29.6808 37.0113 30.7946 36.3898 31.9909 35.8596C32.1188 35.7901 32.2279 35.6949 32.3101 35.581C32.3923 35.4671 32.4453 35.3375 32.4653 35.202C32.5004 32.9745 32.4798 30.7452 32.4942 28.5177C32.4942 28.1566 32.3766 28.0008 31.9847 27.8696C29.7158 27.1094 28.4494 25.4293 28.4556 23.1962C28.4556 21.5617 28.3834 19.9139 28.5917 18.3004C28.9795 15.2823 30.8028 13.1176 33.7091 11.7131C33.8452 11.6466 33.9896 11.5952 34.1216 11.5363C34.2536 11.4774 34.4021 11.4356 34.5506 11.3729ZM32.5107 26.2295V18.5703C32.5107 17.3862 32.7355 16.9928 33.4224 16.9757C34.1092 16.9586 34.3629 17.3558 34.3629 18.5246C34.3629 25.1614 34.3629 31.7975 34.3629 38.4329C34.3522 38.7633 34.3834 39.0937 34.4558 39.4174C34.5981 39.9609 35.0457 40.3373 35.615 40.2802C36.1001 40.2065 36.5452 39.9874 36.8814 39.6569C37.098 39.444 37.0877 38.9917 37.0877 38.6458C37.1001 34.5216 37.0877 30.3993 37.0877 26.2751C37.0877 26.0622 37.0052 25.7828 37.1207 25.6498C37.3641 25.3666 37.7147 24.9751 38.0179 24.977C38.3212 24.9789 38.6656 25.3761 38.9069 25.6612C39.0204 25.7943 38.9379 26.0736 38.9379 26.2865C38.9379 30.4588 38.9379 34.6299 38.9379 38.7997C38.9379 39.7291 39.4556 40.303 40.2724 40.3202C41.0892 40.3373 41.642 39.769 41.675 38.8529C41.675 38.6629 41.675 38.4728 41.675 38.2828C41.675 31.6714 41.675 25.0594 41.675 18.4467C41.675 18.1863 41.5987 17.8766 41.7204 17.677C41.8895 17.4033 42.2072 17.0365 42.4732 17.0289C42.7888 17.0194 43.1807 17.2969 43.4179 17.5459C43.5685 17.7055 43.5231 18.0438 43.5231 18.3061C43.5231 20.6754 43.5231 23.0454 43.5231 25.416V26.2561C44.9525 25.6631 45.6435 24.7356 45.691 23.4471C45.7425 22.0255 45.757 20.5962 45.691 19.1822C45.5115 15.746 42.597 12.9104 39.0204 12.5949C34.8807 12.2357 31.3102 14.3453 30.5863 17.9165C30.1902 19.8645 30.3367 21.9228 30.413 23.926C30.4625 24.9903 31.2504 25.7524 32.5024 26.2295H32.5107ZM38.0262 2.33955C36.8556 2.34587 35.7342 2.7743 34.9023 3.53308C34.0703 4.29186 33.5939 5.32066 33.575 6.39913C33.5755 7.49053 34.0445 8.53745 34.8795 9.3115C35.7145 10.0856 36.8479 10.5239 38.0324 10.5309C39.2032 10.5226 40.324 10.0927 41.1554 9.33309C41.9867 8.57345 42.4627 7.54433 42.4815 6.46565C42.482 5.37349 42.0124 4.32572 41.1756 3.5522C40.3389 2.77868 39.2032 2.34257 38.0179 2.33955H38.0262ZM32.5086 37.7202L32.3024 37.5682C31.7083 37.9958 31.0503 38.3683 30.5285 38.8624C29.4167 39.9134 29.4023 41.183 30.5553 42.1884C31.2242 42.7712 31.9974 43.2431 32.8407 43.5834C35.4953 44.6382 38.2696 44.7332 41.0748 44.2049C42.7249 43.8932 44.2884 43.3572 45.4929 42.1979C46.3758 41.3484 46.5573 40.3791 45.9942 39.4744C45.4612 38.6556 44.652 38.0202 43.6902 37.6651C43.5149 38.5926 43.4674 39.5238 43.1457 40.3677C42.7826 41.3179 41.8648 41.8235 40.7881 41.9945C39.7114 42.1656 38.8244 41.8045 38.0118 41.1773C37.8859 41.2647 37.789 41.3369 37.6879 41.4054C36.6422 42.101 35.518 42.2454 34.3464 41.7323C33.1749 41.2191 32.5891 40.3145 32.5066 39.1361C32.488 38.6667 32.5086 38.1934 32.5086 37.7202Z" fill="#AE1C1F"/>
<path d="M3.17997 18.2053C0.892503 17.5459 0.0406369 16.4777 0.0385742 14.3624C0.0385742 12.3707 0.0385742 10.3808 0.0385742 8.389C0.0385742 6.24328 1.57112 4.80836 3.89571 4.80076C8.96155 4.78809 14.0288 4.78809 19.0974 4.80076C21.3951 4.80076 22.9194 6.18627 22.9566 8.31298C22.9937 10.4397 22.9937 12.5797 22.9566 14.7121C22.9194 16.8445 21.4364 18.1635 19.153 18.1901C16.9419 18.2148 14.7287 18.1768 12.5175 18.2129C12.0662 18.2281 11.6269 18.3513 11.2428 18.5703C9.62985 19.4977 8.04161 20.4708 6.45957 21.4382C5.73558 21.8829 4.99922 22.0217 4.21335 21.6282C3.42749 21.2348 3.1676 20.5658 3.18203 19.779C3.1841 19.264 3.17997 18.7451 3.17997 18.2053ZM5.03634 20.256C6.85972 19.1556 8.5119 18.1977 10.1125 17.1733C10.8393 16.6868 11.723 16.4403 12.6207 16.4739C14.7534 16.5234 16.8883 16.4986 19.0149 16.4834C20.4422 16.4739 21.0919 15.8772 21.1043 14.562C21.1208 12.5246 21.1208 10.4866 21.1043 8.44792C21.1043 7.14604 20.4174 6.51126 19.0231 6.50746C14.0081 6.49859 8.99319 6.49859 3.97822 6.50746C2.59007 6.50746 1.89907 7.17075 1.89495 8.44602C1.8867 10.4606 1.8867 12.4752 1.89495 14.4898C1.89495 15.8202 2.46011 16.377 3.90602 16.4891C4.79502 16.5576 5.01779 16.7685 5.0281 17.6067C5.03841 18.4448 5.0281 19.243 5.0281 20.2503L5.03634 20.256Z" fill="#AE1C1F"/>
<path d="M38.1003 47.8539C40.5941 47.8539 43.0899 47.8539 45.5856 47.8539C47.9391 47.8539 49.4552 49.2375 49.4696 51.3947C49.482 53.5043 49.482 55.6133 49.4696 57.7216C49.4696 59.4112 48.5703 60.5724 46.8439 61.0818C46.4437 61.2015 46.3158 61.365 46.3406 61.7299C46.3694 62.1556 46.3591 62.5832 46.3406 63.0089C46.2808 64.5959 44.6905 65.4093 43.2301 64.5636C41.5346 63.5772 39.8804 62.5319 38.189 61.5417C37.8677 61.3594 37.4999 61.2585 37.1226 61.249C34.8867 61.2224 32.6488 61.249 30.4108 61.2338C28.1089 61.2338 26.5887 59.8331 26.5743 57.7197C26.5599 55.6063 26.5599 53.453 26.5743 51.3205C26.5908 49.2527 28.1213 47.8634 30.3799 47.8539C32.9541 47.8539 35.5282 47.8539 38.1003 47.8539ZM44.4945 63.2902C44.4945 62.2734 44.4945 61.4467 44.4945 60.6294C44.4945 59.8122 44.7833 59.5765 45.6434 59.5366C46.9635 59.4777 47.6091 58.8752 47.6153 57.657C47.6249 55.5955 47.6249 53.5328 47.6153 51.4688C47.6153 50.2144 46.9284 49.5682 45.5877 49.5682C40.5452 49.5682 35.5028 49.5682 30.4603 49.5682C29.1134 49.5682 28.4327 50.203 28.4266 51.4688C28.4169 53.5303 28.4169 55.5924 28.4266 57.6551C28.4266 58.9094 29.1134 59.5347 30.4644 59.5404C32.2404 59.5499 34.0225 59.6317 35.7881 59.5176C37.4306 59.3772 39.0682 59.8289 40.3569 60.7777C41.6089 61.6633 43.0074 62.3931 44.4925 63.2921L44.4945 63.2902Z" fill="#AE1C1F"/>
<path d="M72.8619 18.2054C72.8619 18.7927 72.8805 19.359 72.8619 19.9159C72.7939 21.596 71.1974 22.3733 69.6586 21.4648C68.0085 20.4937 66.3997 19.4807 64.7496 18.519C64.4065 18.3241 64.0138 18.216 63.611 18.2054C61.4514 18.175 59.2918 18.2054 57.1302 18.1883C54.5292 18.175 53.0936 16.837 53.0853 14.4271C53.0853 12.4372 53.073 10.4455 53.0853 8.45558C53.1018 6.15971 54.5952 4.79511 57.091 4.79321C62.0564 4.79321 67.0198 4.79321 71.9812 4.79321C74.5058 4.79321 75.9992 6.18632 76.0033 8.51639C76.0033 10.4588 76.0033 12.4018 76.0033 14.3454C76.0095 16.4626 75.1576 17.525 72.8619 18.2054ZM71.0055 20.1934C71.0055 19.2621 71.0055 18.443 71.0055 17.6257C71.0179 16.7553 71.2283 16.5595 72.1895 16.4854C73.5302 16.3866 74.1346 15.805 74.1387 14.5734C74.1469 12.5361 74.1469 10.498 74.1387 8.45938C74.1387 7.1765 73.4456 6.50941 72.0761 6.50751C67.0597 6.49611 62.0441 6.49611 57.0291 6.50751C55.6286 6.50751 54.9438 7.14039 54.9335 8.43467C54.917 10.4721 54.917 12.5101 54.9335 14.5487C54.9438 15.8943 55.5976 16.4759 57.0827 16.4854C58.5266 16.4968 59.9704 16.5975 61.4019 16.4645C63.7286 16.2459 65.7334 16.7686 67.5382 18.137C68.4066 18.7927 69.4173 19.2925 70.3661 19.8589C70.5311 19.952 70.7065 20.0299 71.0117 20.1858L71.0055 20.1934Z" fill="#AE1C1F"/>
<path d="M7.61042 11.5401C7.30515 11.7549 7.02875 12.0837 6.68841 12.154C6.15625 12.2623 5.80149 11.9202 5.78292 11.428C5.76436 10.9357 6.11912 10.5765 6.63685 10.6393C6.98131 10.6811 7.2804 11.0194 7.60011 11.2094L7.61042 11.5401Z" fill="#AE1C1F"/>
<path d="M11.3006 12.2984C11.0943 12.0058 10.7478 11.7283 10.6818 11.4185C10.6545 11.3131 10.6567 11.2031 10.6883 11.0987C10.7198 10.9944 10.7797 10.8991 10.8622 10.8219C10.9447 10.7448 11.0472 10.6882 11.16 10.6576C11.2727 10.627 11.3921 10.6233 11.5069 10.6469C11.8307 10.7058 12.2845 11.1163 12.301 11.39C12.3175 11.6637 11.8885 11.9982 11.6616 12.3041L11.3006 12.2984Z" fill="#AE1C1F"/>
<path d="M17.3441 11.5534C17.0388 11.7644 16.7603 12.0913 16.42 12.1597C15.8858 12.2661 15.5351 11.9164 15.5186 11.428C15.5021 10.9395 15.861 10.5765 16.3808 10.645C16.7232 10.6906 17.0202 11.0251 17.3379 11.2303L17.3441 11.5534Z" fill="#AE1C1F"/>
<path d="M39.0058 54.6351C38.6634 54.8404 38.3396 55.1711 37.9745 55.2186C37.4877 55.2832 37.166 54.9107 37.1763 54.4584C37.1763 53.968 37.5166 53.605 38.0591 53.7096C38.4035 53.7761 38.6923 54.103 39.0038 54.312L39.0058 54.6351Z" fill="#AE1C1F"/>
<path d="M33.3357 53.5556C33.5584 53.8445 33.9153 54.1125 33.9751 54.4299C34.0679 54.9183 33.6822 55.2395 33.1501 55.2338C32.6179 55.2281 32.2342 54.9088 32.3374 54.4185C32.4034 54.103 32.7499 53.8483 32.9871 53.5537L33.3357 53.5556Z" fill="#AE1C1F"/>
<path d="M43.0693 53.5556C43.2921 53.8445 43.6448 54.1125 43.7087 54.428C43.8077 54.9202 43.42 55.2376 42.8837 55.2376C42.3474 55.2376 41.9658 54.9126 42.0586 54.4242C42.1226 54.1087 42.4815 53.8426 42.7063 53.5556H43.0693Z" fill="#AE1C1F"/>
<path d="M59.4797 12.3004C59.2631 12.0096 58.9207 11.7397 58.8609 11.4242C58.8323 11.3185 58.8335 11.2077 58.8645 11.1025C58.8955 10.9974 58.9552 10.9012 59.0379 10.8233C59.1206 10.7454 59.2236 10.6883 59.337 10.6574C59.4504 10.6265 59.5706 10.6229 59.6859 10.6469C60.0098 10.7039 60.4677 11.1106 60.4883 11.3824C60.5089 11.6542 60.0758 11.9963 59.8572 12.3042L59.4797 12.3004Z" fill="#AE1C1F"/>
<path d="M64.3434 12.3004C64.1206 11.9906 63.704 11.6637 63.7246 11.371C63.7452 11.0783 64.2135 10.6982 64.5394 10.6469C64.6548 10.6258 64.7741 10.6322 64.8861 10.6653C64.9982 10.6985 65.0992 10.7574 65.1797 10.8365C65.2601 10.9156 65.3174 11.0123 65.3461 11.1174C65.3749 11.2226 65.374 11.3327 65.3438 11.4375C65.2778 11.7511 64.9313 12.0077 64.7064 12.3023L64.3434 12.3004Z" fill="#AE1C1F"/>
<path d="M69.1782 12.2946C68.9719 11.9963 68.644 11.7245 68.5965 11.3976C68.5722 11.2913 68.5776 11.1811 68.6123 11.0774C68.647 10.9736 68.7099 10.8797 68.795 10.8046C68.88 10.7294 68.9845 10.6755 69.0985 10.6479C69.2124 10.6203 69.3322 10.62 69.4463 10.6469C69.7681 10.7153 70.2095 11.1372 70.2178 11.4071C70.226 11.677 69.7929 12.0077 69.5536 12.3079L69.1782 12.2946Z" fill="#AE1C1F"/>
</svg>
