<svg width="76" height="72" viewBox="0 0 76 72" fill="none" xmlns="http://www.w3.org/2000/svg">
<path d="M38.0082 21.1055C41.967 21.1164 45.7599 22.6965 48.5555 25.4994C51.3511 28.3023 52.9213 32.0994 52.9218 36.0581C52.9071 40.0139 51.3268 43.803 48.5264 46.5969C45.7259 49.3908 41.9332 50.9622 37.9773 50.9676C34.0195 50.9557 30.2277 49.3754 27.4327 46.5731C24.6377 43.7708 23.0674 39.9749 23.0658 36.017C23.0761 32.0601 24.6547 28.2686 27.4556 25.4735C30.2565 22.6784 34.0512 21.1076 38.0082 21.1055ZM30.9339 25.3891C32.6449 26.952 33.8479 28.7124 34.5183 30.8059C34.6808 31.3118 34.8782 31.8568 34.8412 32.3668C34.7075 34.2176 34.8248 34.4232 36.5152 35.1183C36.8525 35.2561 37.2864 35.5934 37.3378 35.9018C37.6319 37.4524 37.6463 39.0236 37.0314 40.5166C36.4946 41.8204 35.3512 42.4168 33.9323 42.2502C31.5179 41.9705 29.8193 40.7017 28.6985 38.5712C28.4149 38.0289 28.0698 37.5211 27.6703 37.0576C27.1952 36.5167 26.533 36.4098 25.8318 36.5394C25.3937 36.6196 25.184 36.7902 25.2539 37.3105C25.9243 42.2337 28.4867 45.7668 33.0212 47.7986C35.6021 48.9482 38.3002 49.123 41.0744 48.4155C40.8852 47.2269 40.6631 46.1 40.5356 44.9607C40.2004 41.8266 40.6611 38.8262 42.1931 36.0335C42.7916 34.9415 43.5278 34.886 44.3504 35.8093C44.6328 36.1377 44.9729 36.4116 45.3539 36.6175C46.1148 36.9979 46.9189 36.854 47.2891 36.3234C48.1117 35.1554 49.1214 34.4726 50.6103 34.9394C50.6741 32.63 49.0638 28.9016 47.4804 27.6862C47.3014 27.8055 47.0999 27.9186 46.923 28.0605C46.2773 28.5705 45.5719 29.0332 45.9113 30.0738C45.9791 30.2794 45.8002 30.6208 45.6501 30.8429C44.6568 32.3092 43.026 32.6012 41.5536 31.5976C39.8158 30.4152 39.0406 28.7988 39.4436 26.7073C39.6493 25.638 39.9577 24.5891 40.2354 23.4663C36.9491 22.8967 33.8911 23.5362 30.9339 25.3891ZM25.3423 34.3286C26.0066 34.3636 26.6009 34.3286 27.1644 34.4376C28.8774 34.7852 29.8686 35.9985 30.5822 37.4812C31.3164 39.0092 32.4639 39.9284 34.179 40.1135C34.6726 40.167 35.0016 39.9984 35.1024 39.5315C35.2299 38.9146 35.2751 38.2709 35.3656 37.6416C35.4335 37.1686 35.2319 36.9198 34.8001 36.7059C33.2516 35.9306 32.538 34.6721 32.5853 32.9158C32.6511 30.2424 31.0203 28.4697 29.227 26.7464C27.0307 28.9077 25.7454 31.3838 25.3423 34.3286ZM43.2152 47.6485C43.4805 47.5374 43.6738 47.4757 43.8507 47.3811C47.3467 45.4727 49.5636 42.5895 50.4931 38.6966C50.6987 37.8144 50.3553 37.3599 49.6397 36.9136C49.434 37.1645 49.1728 37.3661 49.0515 37.6272C48.6896 38.4149 48.05 38.7028 47.2439 38.8611C46.6135 38.9875 45.9644 38.9876 45.3339 38.8616C44.7035 38.7356 44.1043 38.4859 43.571 38.127C42.296 41.3104 42.3864 44.4362 43.2152 47.6485ZM42.6106 24.0277C41.8826 25.1979 41.6441 26.2898 41.5289 27.462C41.4199 28.5664 41.9916 29.2532 42.7916 29.827C43.3386 30.2198 43.5278 30.0532 43.6717 29.4034C43.8193 28.7418 44.0654 28.1061 44.4018 27.5176C44.7411 26.9253 45.2347 26.4215 45.7118 25.8148L42.6106 24.0277Z" fill="#AE1C1F"/>
<path d="M62.2233 57.1124C59.0974 54.2806 58.7273 50.9553 61.2094 48.4895C61.7349 47.9694 62.3608 47.5617 63.0489 47.2912C63.737 47.0207 64.4729 46.8931 65.2119 46.9162C65.9509 46.9393 66.6775 47.1126 67.3474 47.4255C68.0173 47.7384 68.6164 48.1844 69.1084 48.7363C71.3458 51.2165 70.8626 54.6117 67.8745 57.0877C68.1542 57.1946 68.401 57.2933 68.6498 57.3859C72.6538 58.8789 75.0845 61.7333 75.9297 65.9038C75.957 66.1347 75.9344 66.3687 75.8634 66.5901C75.7925 66.8115 75.6748 67.0151 75.5184 67.1871C72.1294 70.4096 68.0843 71.808 63.4243 71.3371C60.1565 71.008 57.333 69.6734 54.8693 67.5059C54.1722 66.8889 54.0159 66.2596 54.2421 65.3959C55.2703 61.4228 57.7031 58.7308 61.5693 57.3448L62.2233 57.1124ZM64.4854 69.2847C68.0493 69.2847 70.951 68.2565 73.2666 66.3522C73.5854 66.091 73.7746 65.8668 73.6471 65.3897C72.6497 61.6695 69.1228 58.9817 65.1373 58.9488C61.1128 58.9139 57.5283 61.5482 56.4795 65.2951C56.4037 65.48 56.395 65.6855 56.4552 65.8761C56.5153 66.0666 56.6404 66.23 56.8086 66.3378C59.2105 68.2729 61.9518 69.2456 64.4813 69.2847H64.4854ZM68.3352 52.3454C68.3368 51.9163 68.2535 51.4911 68.0901 51.0943C67.9267 50.6975 67.6864 50.3369 67.383 50.0334C67.0797 49.7298 66.7193 49.4893 66.3225 49.3256C65.9258 49.162 65.5007 49.0784 65.0715 49.0798C64.6361 49.0746 64.2041 49.1559 63.8003 49.3189C63.3966 49.482 63.0293 49.7235 62.7196 50.0296C62.4099 50.3356 62.164 50.7001 61.9962 51.1019C61.8284 51.5036 61.742 51.9347 61.7421 52.3701C61.7518 53.2383 62.1021 54.0679 62.7175 54.6802C63.3329 55.2926 64.1643 55.6387 65.0324 55.6441C65.4668 55.6482 65.8976 55.5657 66.2996 55.4014C66.7017 55.237 67.067 54.9942 67.3741 54.6871C67.6812 54.38 67.924 54.0147 68.0883 53.6126C68.2527 53.2106 68.3352 52.7798 68.331 52.3454H68.3352Z" fill="#AE1C1F"/>
<path d="M8.07813 57.0569C4.43405 54.4328 5.17644 50.4761 6.95735 48.6253C7.47057 48.0863 8.08792 47.6573 8.77195 47.3641C9.45598 47.0709 10.1924 46.9197 10.9366 46.9197C11.6809 46.9197 12.4173 47.0709 13.1013 47.3641C13.7854 47.6573 14.4027 48.0863 14.9159 48.6253C16.7956 50.6201 17.3179 54.5233 13.7479 57.0795L14.3257 57.2851C18.2769 58.6945 20.7591 61.4324 21.7723 65.4987C21.9656 66.2699 21.8113 66.8457 21.2005 67.4133C18.4005 69.9944 14.7309 71.4258 10.9227 71.4223C7.1146 71.4189 3.44754 69.9809 0.65218 67.3948C0.146286 66.9218 -0.118997 66.455 0.0516912 65.7126C1.02646 61.4947 3.54771 58.6815 7.62982 57.281C7.7491 57.2399 7.87043 57.1967 7.98765 57.1514C8.01027 57.1494 8.02261 57.1206 8.07813 57.0569ZM10.8914 69.2929C13.8856 69.2912 16.7889 68.2635 19.1173 66.3809C19.5492 66.0375 19.6294 65.7167 19.4752 65.2108C18.9089 63.3848 17.7698 61.7897 16.2265 60.6615C14.6831 59.5334 12.8175 58.9321 10.9058 58.9468C8.99478 58.9418 7.13315 59.5534 5.59747 60.6908C4.06178 61.8282 2.934 63.4307 2.38168 65.2602C2.23155 65.7578 2.31793 66.0478 2.72306 66.3707C5.03572 68.2428 7.91603 69.2732 10.8914 69.2929ZM7.64834 52.3475C7.64337 52.7832 7.72558 53.2155 7.89016 53.619C8.05474 54.0225 8.29836 54.3889 8.60666 54.6969C8.91497 55.0048 9.28175 55.2479 9.68543 55.412C10.0891 55.5761 10.5215 55.6578 10.9572 55.6523C11.8257 55.6469 12.6574 55.3005 13.2729 54.6877C13.8884 54.0749 14.2384 53.2448 14.2476 52.3763C14.2476 51.9407 14.1612 51.5095 13.9932 51.1076C13.8253 50.7057 13.5793 50.3411 13.2694 50.035C12.9594 49.7289 12.5919 49.4874 12.1879 49.3245C11.7839 49.1616 11.3516 49.0805 10.9161 49.0859C10.4868 49.0835 10.0613 49.1661 9.6641 49.3291C9.26694 49.4921 8.906 49.7321 8.60216 50.0354C8.29831 50.3387 8.05758 50.6991 7.89386 51.096C7.73014 51.4928 7.6467 51.9182 7.64834 52.3475Z" fill="#AE1C1F"/>
<path d="M62.1924 10.8457C59.083 7.77947 58.7499 4.62894 61.23 2.20846C61.7421 1.70275 62.3495 1.30376 63.017 1.03459C63.6845 0.765424 64.3987 0.631448 65.1184 0.640439C65.8381 0.64943 66.5488 0.801198 67.2093 1.08696C67.8699 1.37271 68.4671 1.78677 68.9665 2.30511C71.3232 4.76054 70.9366 7.98512 67.8889 10.8477C68.1439 10.9382 68.3721 11.0164 68.5963 11.0986C72.6352 12.5793 75.0619 15.4501 75.9667 19.6392C76.0983 20.2561 75.8248 20.6551 75.4094 21.052C69.9741 26.2549 61.2505 26.5243 55.4307 21.7553C54.2318 20.7723 53.9295 19.8346 54.421 18.3848C55.7248 14.5432 58.2995 12.0796 62.1924 10.8457ZM64.7815 22.9995C68.1192 22.9995 70.8564 22.0124 73.2604 20.0752C73.5791 19.8181 73.7704 19.5919 73.6429 19.1127C72.6434 15.3843 69.0425 12.6574 65.0571 12.6513C61.0716 12.6451 57.4275 15.3884 56.4589 19.0942C56.3937 19.256 56.3866 19.4354 56.4387 19.6018C56.4908 19.7683 56.599 19.9116 56.7448 20.0073C59.1591 21.9753 61.9127 22.983 64.7815 22.9995ZM68.3331 6.10342C68.3363 5.66769 68.253 5.23565 68.088 4.83238C67.9229 4.4291 67.6794 4.06264 67.3716 3.75423C67.0638 3.44583 66.6977 3.20162 66.2948 3.03582C65.8918 2.87002 65.4599 2.78591 65.0242 2.78837C64.1548 2.79904 63.3241 3.14913 62.7093 3.7639C62.0946 4.37866 61.7445 5.2094 61.7338 6.07874C61.7403 6.95901 62.0934 7.80125 62.7166 8.42294C63.3399 9.04462 64.183 9.39566 65.0633 9.39997C65.9334 9.39453 66.766 9.04461 67.3788 8.4268C67.9916 7.809 68.3347 6.9736 68.3331 6.10342Z" fill="#AE1C1F"/>
<path d="M8.08638 10.8333C5.02839 7.95425 4.65206 4.69473 7.05814 2.25575C7.56352 1.74329 8.16553 1.33619 8.82933 1.05801C9.49313 0.779824 10.2055 0.636093 10.9253 0.635137C11.645 0.63418 12.3578 0.776016 13.0223 1.05243C13.6868 1.32885 14.2899 1.73434 14.7967 2.24545C17.2398 4.69884 16.8819 7.90696 13.7849 10.8436C14.0419 10.9341 14.2702 11.0122 14.4964 11.0945C18.3852 12.5196 20.7872 15.263 21.7825 19.269C21.9759 20.0464 21.7825 20.6201 21.18 21.1774C15.2985 26.5243 6.20263 26.4749 0.569931 21.0499C0.333976 20.8553 0.160436 20.5955 0.0708597 20.303C-0.0187163 20.0105 -0.020369 19.6982 0.0661025 19.4048C1.07378 15.0142 3.79656 12.24 8.08638 10.8333ZM10.8729 22.9974C13.8721 23.0212 16.7867 22.0037 19.1194 20.1183C19.5492 19.7749 19.6397 19.4623 19.4834 18.9544C18.9194 17.1417 17.794 15.5552 16.2696 14.4237C14.7453 13.2923 12.9008 12.6745 11.0025 12.6595C9.09163 12.6454 7.22629 13.2424 5.67874 14.3633C4.13119 15.4843 2.98245 17.0706 2.4002 18.8906C2.22746 19.4418 2.31383 19.7708 2.76831 20.1245C5.06213 21.9802 7.92244 22.9942 10.8729 22.9974ZM10.912 2.78837C10.4764 2.79181 10.0458 2.88175 9.64519 3.05291C9.24459 3.22407 8.88198 3.47308 8.57837 3.78548C8.27477 4.09788 8.03623 4.46745 7.87658 4.87277C7.71693 5.27808 7.63935 5.71109 7.64835 6.14662C7.66027 7.01427 8.01445 7.84209 8.63378 8.44987C9.25311 9.05765 10.0874 9.39615 10.9552 9.39173C11.8234 9.37744 12.652 9.02618 13.266 8.41219C13.88 7.7982 14.2312 6.96956 14.2455 6.10136C14.2417 5.22031 13.8886 4.37673 13.2637 3.75566C12.6388 3.13458 11.793 2.78673 10.912 2.78837Z" fill="#AE1C1F"/>
<path d="M38.0082 62.8603C33.9666 62.7345 29.9826 61.8659 26.2554 60.2979C25.6611 60.047 25.2272 59.7097 25.3382 58.9838C25.4493 58.2579 26.1279 57.9556 26.9484 58.2352C28.5443 58.7761 30.1195 59.4198 31.7524 59.8084C37.346 61.141 42.8348 60.6907 48.1898 58.5951C48.4983 58.4738 48.8068 58.3278 49.1111 58.2167C49.7795 57.9802 50.3697 58.2167 50.5897 58.7658C50.6505 58.9022 50.6812 59.0501 50.6798 59.1994C50.6783 59.3487 50.6448 59.496 50.5814 59.6312C50.518 59.7664 50.4262 59.8864 50.3123 59.9829C50.1985 60.0795 50.0651 60.1505 49.9214 60.1909C48.0397 60.8429 46.1683 61.577 44.2332 62.0048C42.1952 62.4551 40.0852 62.5867 38.0082 62.8603Z" fill="#AE1C1F"/>
<path d="M37.9938 9.28687C42.0569 9.33923 46.0688 10.1998 49.7959 11.8184C50.635 12.1845 50.9229 12.9083 50.4643 13.5129C50.053 14.0538 49.5286 14.0435 48.9507 13.7947C46.7424 12.8333 44.416 12.1701 42.0327 11.8225C37.1417 11.0901 32.1437 11.6934 27.5674 13.5685C27.3083 13.6754 27.0513 13.7947 26.7839 13.8811C26.167 14.0867 25.5706 13.842 25.3917 13.2929C25.186 12.676 25.3732 12.1392 25.9942 11.9027C27.4338 11.3598 28.8733 10.8169 30.3334 10.3748C31.3658 10.0737 32.4207 9.85642 33.488 9.7249C34.9831 9.52953 36.4905 9.42671 37.9938 9.28687Z" fill="#AE1C1F"/>
<path d="M9.07141 36.9794C9.08842 34.436 9.60477 31.9206 10.5912 29.5761C10.9469 28.7535 11.4795 28.4389 12.115 28.698C12.7505 28.9571 12.9211 29.5658 12.5818 30.3946C10.7762 34.8037 10.781 39.21 12.5962 43.6136C12.8183 44.1504 12.9253 44.7221 12.3906 45.0532C12.0227 45.241 11.5977 45.2836 11.1999 45.1724C10.9531 45.1066 10.7413 44.7139 10.6158 44.4239C9.60886 42.0705 9.08371 39.5392 9.07141 36.9794Z" fill="#AE1C1F"/>
<path d="M66.9058 37.037C66.8864 39.5806 66.3687 42.0958 65.3819 44.4403C65.0344 45.2629 64.4791 45.5591 63.8478 45.2835C63.2165 45.0079 63.0561 44.4609 63.383 43.6548C65.1969 39.221 65.1969 34.7893 63.383 30.3596C63.0622 29.5802 63.2453 28.99 63.8499 28.7288C64.4545 28.4676 65.0323 28.7597 65.3861 29.5781C66.3757 31.9411 66.892 34.4753 66.9058 37.037Z" fill="#AE1C1F"/>
</svg>
