<svg width="76" height="70" viewBox="0 0 76 70" fill="none" xmlns="http://www.w3.org/2000/svg">
<path d="M0 61.2618C0.430295 60.3159 1.16398 59.9431 2.19907 59.9987C3.23415 60.0542 4.25933 60.0106 5.17345 60.0106C5.10405 58.8069 4.97516 57.6866 4.97516 56.5662C4.9593 44.395 4.95533 32.2245 4.96326 20.0546C4.96326 17.7326 6.00827 16.1661 7.93765 15.6466C8.46654 15.5241 9.00911 15.4707 9.55174 15.488C19.6184 15.4787 29.6864 15.4787 39.7556 15.488H40.8086C40.8086 14.6948 40.8344 13.9631 40.7907 13.2354C40.7808 13.0589 40.5686 12.8725 40.414 12.7258C39.952 12.2796 39.4503 11.8711 39.0061 11.4091C38.6077 11.0291 38.3477 10.527 38.2672 9.9824C38.1868 9.4378 38.2905 8.88192 38.5619 8.40298C38.903 7.74663 39.2738 7.1002 39.6763 6.47954C39.9614 6.02536 40.3861 5.67588 40.8866 5.48353C41.3871 5.29118 41.9366 5.26633 42.4524 5.41273C42.9085 5.52377 43.3527 5.67646 43.8087 5.78949C44.2053 5.88863 44.6733 6.12857 44.9985 6.00563C45.6568 5.76173 46.2537 5.33143 46.8466 4.93485C46.9735 4.84958 46.9894 4.58189 47.035 4.39351C47.1857 3.77088 47.2987 3.13634 47.4791 2.51965C47.6063 1.99751 47.903 1.53227 48.3228 1.19677C48.7426 0.861283 49.2618 0.674488 49.7992 0.665618C50.5647 0.62497 51.3318 0.62497 52.0974 0.665618C53.2237 0.727089 54.0406 1.38938 54.3817 2.47007C54.5086 2.86666 54.6791 3.28505 54.6772 3.69155C54.6772 5.20056 55.9323 5.47618 56.8921 6.03338C57.0428 6.12262 57.3224 6.03339 57.5286 5.97787C58.1453 5.80535 58.7521 5.58129 59.3727 5.42464C60.5307 5.12125 61.5539 5.50394 62.2063 6.50334C62.6115 7.12441 62.9848 7.76573 63.3247 8.42479C63.5827 8.89639 63.6802 9.43914 63.6026 9.97106C63.525 10.503 63.2764 10.9952 62.8944 11.3734C62.6643 11.6654 62.3931 11.9226 62.0893 12.1368C60.7152 12.93 61.0007 14.1733 61.078 15.4503C61.3794 15.4642 61.6432 15.484 61.9089 15.486C63.5666 15.486 65.2243 15.4662 66.8801 15.486C69.2298 15.5237 70.8895 17.1338 70.9867 19.4855C71.0363 20.6753 71.0164 21.8651 70.9966 23.0548C70.9827 23.8837 70.5524 24.3338 69.8624 24.3179C69.2041 24.3021 68.8015 23.8619 68.7857 23.0687C68.7638 21.9801 68.7857 20.8875 68.7718 19.8028C68.748 18.389 68.0738 17.7307 66.652 17.7168C65.5912 17.7049 64.5323 17.7168 63.4794 17.7168C63.5269 18.4663 63.5706 19.1564 63.6201 19.9436C64.0921 19.9436 64.6275 19.9436 65.1629 19.9436C66.1841 19.9595 66.539 20.3045 66.5509 21.3316C66.5628 23.2868 66.5509 25.24 66.5509 27.1952C66.5509 36.7925 66.5509 46.3905 66.5509 55.9892C66.5509 57.526 66.3149 57.7738 64.794 57.7738H11.1579C9.67667 57.7738 9.4288 57.526 9.42682 56.0507C9.42682 53.8972 9.42682 51.7457 9.42682 49.5943C9.42682 48.926 9.65882 48.4243 10.3588 48.2736C11.0588 48.1229 11.6338 48.6702 11.6437 49.5268C11.6655 51.2084 11.6437 52.8978 11.6437 54.5734V55.4955H64.2864V22.1823C63.3187 22.2418 62.3927 21.9087 61.5103 22.7296C61.0879 23.1262 60.2373 23.1262 59.577 23.154C59.0784 23.1437 58.5907 23.0072 58.1592 22.7574C57.3402 22.3211 56.6997 22.5968 55.9621 22.9933C55.2244 23.3899 54.7723 23.8718 54.7307 24.7383C54.6793 25.1597 54.5788 25.5736 54.4313 25.9717C54.0486 27.3003 53.1206 27.8753 51.4846 27.9229C49.0357 27.9943 48.1335 27.8178 47.4831 26.0094C47.2809 25.4514 47.1444 24.8718 47.0766 24.2822C47.0171 23.7726 46.7375 23.5347 46.3588 23.2551C45.3832 22.5313 44.4314 22.3806 43.2853 22.9021C42.0539 23.4613 40.8264 23.4276 39.827 22.3072C39.7386 22.2229 39.6221 22.1741 39.4999 22.1704C38.7166 22.1585 37.9314 22.1704 37.0846 22.1704C37.2096 22.8407 37.2631 23.4355 37.4535 23.9848C37.5407 24.2386 37.8917 24.4072 38.1336 24.6055C39.0299 25.3411 39.9619 25.47 41.0644 24.9802C41.6968 24.7035 42.3913 24.5995 43.077 24.6788C44.707 24.9088 46.6463 28.032 46.0257 29.5529C45.6846 30.3936 44.9251 31.0975 44.2569 31.7638C43.3328 32.6859 43.2892 34.522 44.2827 35.3747C46.2378 37.0503 46.8823 37.9922 45.1809 40.687C44.0546 42.4716 43.2634 42.8444 41.2508 42.2535C41.2264 42.2492 41.2025 42.2426 41.1794 42.2337C39.948 41.4821 38.8792 41.9342 37.8758 42.7076C37.6567 42.8845 37.4941 43.1216 37.4079 43.3897C37.2254 44.0024 37.1342 44.6449 36.9617 45.2616C36.6266 46.4652 35.7839 47.1414 34.5485 47.1949C33.8327 47.2267 33.1148 47.2267 32.399 47.1949C31.8512 47.1867 31.3214 46.9983 30.8913 46.6589C30.4612 46.3195 30.1549 45.848 30.0195 45.3171C29.8919 44.9943 29.8144 44.654 29.7895 44.3078C29.8252 42.7968 28.6275 42.3962 27.6082 41.849C27.4278 41.7518 27.1304 41.8113 26.9063 41.8728C26.2638 42.0433 25.6372 42.2812 24.9908 42.4419C24.4871 42.5877 23.9498 42.5667 23.4591 42.3819C22.9683 42.1971 22.5506 41.8585 22.2682 41.4167C21.8305 40.7573 21.4331 40.0719 21.0785 39.3643C20.5728 38.3511 20.7453 37.3953 21.4751 36.5446C21.6829 36.2664 21.9347 36.0239 22.2206 35.8268C23.4639 35.109 23.5274 33.9629 23.3727 32.7493C23.3159 32.4727 23.1778 32.2193 22.9761 32.0216C22.53 31.5596 22.0204 31.159 21.5742 30.697C20.7335 29.8285 20.5689 28.7537 21.1181 27.6949C21.4612 27.0385 21.834 26.394 22.2385 25.7754C22.5208 25.3182 22.945 24.9659 23.4462 24.7722C23.9474 24.5786 24.4982 24.5541 25.0146 24.7026C25.5231 24.8073 26.0214 24.9566 26.5038 25.1488C27.1343 25.4323 27.6241 25.2598 28.2349 25.004C29.498 24.4766 29.8093 23.503 29.8212 22.2279H11.6497V23.1302C11.6497 30.0559 11.6497 36.9822 11.6497 43.9092C11.6621 44.2051 11.6435 44.5016 11.5942 44.7936C11.5564 45.0428 11.4264 45.2688 11.23 45.4268C11.0335 45.5847 10.7848 45.663 10.5333 45.6463C10.2816 45.6607 10.0337 45.58 9.83865 45.4203C9.64363 45.2605 9.51575 45.0333 9.48036 44.7837C9.43372 44.4907 9.41579 44.1938 9.42682 43.8973C9.42682 36.4944 9.42682 29.0981 9.42682 21.7084C9.42682 20.1677 9.66081 19.9238 11.1777 19.9238H38.3696V17.7069H9.56364C7.8147 17.7069 7.2 18.3216 7.2 20.0765C7.2 32.5953 7.2 45.1122 7.2 57.6271C7.2 59.376 7.81867 59.9887 9.57951 59.9887H66.424C68.1789 59.9887 68.8035 59.3741 68.8035 57.6251C68.8035 47.9749 68.8035 38.3247 68.8035 28.6744C68.8035 28.3294 68.7222 27.909 68.8868 27.6592C69.1148 27.3121 69.5055 26.9473 69.8901 26.866C70.4136 26.743 70.83 27.1119 70.9629 27.6592C71.0152 27.9261 71.0359 28.1984 71.0244 28.4702C71.0244 38.1931 71.0244 47.9147 71.0244 57.635C71.0244 58.3865 70.8657 59.1401 70.7666 60.0145H73.5427C75.5256 60.0145 76.0174 60.4805 75.9995 62.4436C75.9896 63.5303 76.0432 64.6248 75.8607 65.6956C75.6901 66.7462 75.1635 67.7063 74.3693 68.4149C73.5751 69.1236 72.5615 69.5378 71.4983 69.5881C68.2879 69.6972 65.0697 69.6535 61.8553 69.6416C61.0879 69.6416 60.6656 69.1519 60.6993 68.4796C60.729 67.8431 61.1474 67.4465 61.9009 67.4426C64.8436 67.4287 67.7882 67.4426 70.7309 67.4287C72.4065 67.4287 73.5863 66.5106 73.737 65.0492C73.8322 64.1489 73.7549 63.2328 73.7549 62.2731H45.9939L45.9206 63.0782C45.7758 64.5891 44.7566 65.6401 43.2357 65.7492C42.2442 65.8205 41.2528 65.7868 40.2613 65.7888C38.1567 65.7888 36.0542 65.7888 33.9536 65.7888C31.126 65.7888 30.3645 65.1285 29.9878 62.2909H2.25657C2.25657 63.2368 2.17725 64.1787 2.27639 65.1027C2.40925 66.3301 3.42252 67.2324 4.6678 67.3751C5.06327 67.4117 5.46047 67.4263 5.85755 67.4188H56.2476C56.544 67.4081 56.8408 67.4174 57.136 67.4465C57.3878 67.4627 57.624 67.5742 57.7964 67.7584C57.9688 67.9426 58.0645 68.1857 58.064 68.438C58.1036 69.0329 57.826 69.4433 57.2351 69.5821C56.969 69.6358 56.6974 69.6578 56.4261 69.6476C39.4562 69.6476 22.4864 69.6476 5.5165 69.6476C2.61944 69.6476 0.846714 68.2595 0.00595458 65.5489L0 61.2618ZM60.0568 21.0342C60.1779 20.965 60.291 20.8825 60.3939 20.7883C61.6273 19.4003 61.5936 18.8768 60.2075 17.693C60.0044 17.5521 59.8187 17.3877 59.6543 17.2032C59.3846 16.8284 59.0039 16.4358 58.9543 16.0134C58.7124 13.9968 58.4348 12.0099 60.499 10.5386C61.8216 9.59472 61.5698 9.79698 60.852 8.55567C60.1123 7.2628 60.4554 7.46308 58.986 7.83388C58.2306 8.03217 57.4413 8.33754 56.6978 8.26616C54.7624 8.08373 52.9738 6.28323 52.5653 4.40937C52.1569 2.5355 52.4682 2.95192 50.7272 2.84881C49.8844 2.79725 49.468 3.07883 49.4323 3.90571C49.353 5.8113 48.3219 7.00106 46.6185 7.70103C46.44 7.78626 46.2671 7.88295 46.101 7.99053C45.7684 8.18288 45.3973 8.29934 45.0144 8.33156C44.6315 8.36378 44.2462 8.31097 43.8861 8.17692C43.3068 7.96318 42.7164 7.78114 42.1173 7.63162C41.9975 7.61783 41.8761 7.63157 41.7623 7.67178C41.6486 7.71198 41.5455 7.77759 41.461 7.86363C40.2335 9.50351 40.2534 9.61257 41.7802 10.9332L42.1193 11.2207C42.4197 11.4613 42.6608 11.7678 42.8237 12.1164C42.9867 12.4651 43.0673 12.8466 43.0592 13.2314C43.0344 13.7004 43.0344 14.1703 43.0592 14.6393C43.1901 15.9401 42.7439 16.9553 41.6712 17.7168C41.3413 17.9368 41.0505 18.2102 40.8106 18.5258C40.6658 18.7241 40.5607 19.1465 40.6698 19.319C41.9151 21.405 41.1834 21.2047 43.5093 20.4909C43.6627 20.4126 43.8272 20.3584 43.9971 20.3303C44.6706 20.3372 45.3421 20.4035 46.0038 20.5286C46.4421 20.6337 46.8129 20.9965 47.2372 21.1928C48.4904 21.7758 49.2201 22.7078 49.3054 24.1117C49.3272 24.4528 49.4898 24.78 49.5374 25.121C49.5969 25.5612 49.8368 25.6901 50.2473 25.6782C52.6268 25.6088 52.0756 26.1085 52.6387 23.7964C52.6459 23.7724 52.6512 23.7479 52.6546 23.7231C52.7557 22.6424 53.3208 21.8948 54.2806 21.4129C54.6565 21.2254 55.0201 21.0141 55.3692 20.7804C55.8027 20.4671 56.3123 20.2758 56.8449 20.2267C57.3775 20.1775 57.9136 20.2722 58.3971 20.5008C58.9266 20.7189 59.4838 20.8538 60.0568 21.0342ZM42.5912 40.334C42.7781 40.1885 42.9431 40.0169 43.081 39.8244C44.1835 37.8415 44.3461 38.5216 42.7003 36.9293C42.2502 36.4931 41.6335 35.9835 41.5621 35.4461C41.3063 33.4969 40.8383 31.4703 42.8887 29.9891C44.1399 29.0869 44.0189 28.9976 43.3031 27.6294C42.9323 26.9195 42.5278 26.6796 41.802 27.0564C40.0689 27.9506 38.4687 27.6711 36.9696 26.5011C36.8265 26.4034 36.6775 26.3147 36.5235 26.2354C36.1992 26.0527 35.9193 25.8007 35.7037 25.4974C35.4881 25.194 35.3421 24.8468 35.2762 24.4805C35.1754 23.8717 35.037 23.2697 34.8618 22.6781C34.8105 22.5562 34.7318 22.4478 34.6317 22.3615C34.5316 22.2752 34.4128 22.2132 34.2848 22.1803C32.278 21.9583 32.171 22.0515 31.7942 24.0106C31.7942 24.0582 31.7803 24.1077 31.7724 24.1553C31.4551 25.9142 28.685 27.8733 26.9142 27.5878C26.7207 27.5497 26.5299 27.4987 26.3431 27.4351C26.014 27.33 25.6908 27.209 25.3517 27.1119C24.0152 26.7153 24.2948 26.5943 23.6067 27.8039C22.8373 29.1583 22.647 28.8251 23.9517 29.8582C25.2565 30.8913 25.7939 32.1128 25.6154 33.719C25.6005 33.9408 25.6005 34.1634 25.6154 34.3852C25.6402 34.8434 25.551 35.3005 25.3558 35.7158C25.1606 36.131 24.8656 36.4914 24.497 36.7647C24.2245 36.9778 23.9643 37.2062 23.7178 37.4489C22.8175 38.3233 22.879 38.0437 23.4957 39.1383C24.2115 40.4054 24.2155 40.3757 25.6412 39.9315C26.2936 39.7332 26.9935 39.4734 27.6439 39.5349C29.6269 39.7332 31.4531 41.5178 31.8834 43.467C32.28 45.2517 31.9707 44.8908 33.6839 44.98C34.4771 45.0197 34.9748 44.8253 35.0065 43.9548C35.074 42.0175 36.1328 40.8178 37.86 40.1079C37.9715 40.055 38.0783 39.9927 38.1792 39.9216C38.5434 39.685 38.9594 39.5401 39.3918 39.4994C39.8241 39.4586 40.2599 39.5232 40.6618 39.6876C41.2409 39.9255 41.8377 40.0921 42.5912 40.336V40.334ZM32.3712 62.279C32.2166 63.3181 32.3911 63.5739 33.2834 63.5779C36.4204 63.5871 39.558 63.5871 42.6963 63.5779C43.6184 63.5779 43.8365 63.2427 43.5767 62.279H32.3712Z" fill="#AE1C1F"/>
<path d="M50.9413 20.3204C49.3408 20.3199 47.805 19.6877 46.6681 18.5611C45.5311 17.4345 44.8848 15.9047 44.8696 14.3042C44.8699 13.5054 45.0276 12.7145 45.3338 11.9767C45.6399 11.2389 46.0886 10.5687 46.6539 10.0044C47.2193 9.44013 47.8904 8.99283 48.6288 8.68811C49.3672 8.38338 50.1584 8.2272 50.9572 8.2285C51.7562 8.2253 52.5478 8.38098 53.2861 8.68647C54.0244 8.99196 54.6946 9.44117 55.2577 10.008C55.8209 10.5748 56.2657 11.2479 56.5664 11.9882C56.867 12.7284 57.0175 13.5211 57.0091 14.3201C57.0055 15.1127 56.8455 15.8968 56.5385 16.6276C56.2314 17.3583 55.7833 18.0213 55.2197 18.5787C54.6561 19.136 53.9881 19.5767 53.254 19.8756C52.5198 20.1745 51.734 20.3256 50.9413 20.3204ZM50.9215 15.4801C51.9844 15.4801 53.0472 15.4622 54.1101 15.4801C54.5225 15.49 54.6732 15.3095 54.7466 14.9427C55.0281 13.5249 54.35 11.9187 53.077 11.0799C52.4443 10.6619 51.7026 10.439 50.9443 10.439C50.186 10.439 49.4444 10.6619 48.8117 11.0799C48.193 11.4965 47.7083 12.0834 47.4162 12.7696C47.1241 13.4558 47.0372 14.212 47.1659 14.9467C47.2432 15.3432 47.4177 15.4761 47.8063 15.4701C48.8434 15.4701 49.8825 15.482 50.9215 15.482V15.4801ZM52.1965 17.9448L52.1727 17.7465H49.7218V17.9448H52.1965Z" fill="#AE1C1F"/>
<path d="M33.4639 39.6162C32.6651 39.6165 31.8743 39.4581 31.1373 39.15C30.4003 38.842 29.732 38.3905 29.1711 37.8219C28.6101 37.2532 28.1679 36.5787 27.87 35.8376C27.5721 35.0965 27.4245 34.3035 27.4358 33.5048C27.4417 32.7124 27.604 31.9289 27.9133 31.1993C28.2225 30.4696 28.6727 29.8082 29.238 29.2528C29.8033 28.6974 30.4727 28.2591 31.2077 27.9628C31.9427 27.6665 32.7289 27.5182 33.5214 27.5263C35.1205 27.5326 36.6523 28.1705 37.7833 29.301C38.9142 30.4316 39.5526 31.9632 39.5594 33.5624C39.5578 34.3604 39.3988 35.1503 39.0914 35.8868C38.784 36.6233 38.3343 37.292 37.7681 37.8543C37.2018 38.4167 36.5301 38.8618 35.7915 39.1642C35.0529 39.4665 34.2619 39.6201 33.4639 39.6162ZM33.4817 37.3894C34.4951 37.3968 35.47 37.0024 36.1933 36.2926C36.9165 35.5827 37.329 34.6153 37.3405 33.602C37.3432 32.5895 36.9451 31.6171 36.2333 30.8971C35.5214 30.1771 34.5537 29.768 33.5412 29.7591C33.0332 29.7477 32.528 29.8384 32.0557 30.0258C31.5833 30.2133 31.1534 30.4937 30.7915 30.8505C30.4296 31.2072 30.143 31.633 29.9488 32.1026C29.7545 32.5722 29.6565 33.076 29.6606 33.5842C29.6593 34.0856 29.7574 34.5823 29.9491 35.0456C30.1409 35.5089 30.4225 35.9296 30.7778 36.2834C31.1331 36.6372 31.555 36.9171 32.0191 37.107C32.4832 37.2968 32.9803 37.3928 33.4817 37.3894Z" fill="#AE1C1F"/>
</svg>
