<?xml version="1.0" encoding="utf-8"?>
<!-- Generator: Adobe Illustrator 17.0.0, SVG Export Plug-In . SVG Version: 6.00 Build 0)  -->
<!DOCTYPE svg PUBLIC "-//W3C//DTD SVG 1.1//EN" "http://www.w3.org/Graphics/SVG/1.1/DTD/svg11.dtd">
<svg version="1.1" id="Capa_1" xmlns="http://www.w3.org/2000/svg" xmlns:xlink="http://www.w3.org/1999/xlink" x="0px" y="0px"
	 width="123.5px" height="123.5px" viewBox="0 0 123.5 123.5" enable-background="new 0 0 123.5 123.5" xml:space="preserve">
<g>
	<g>
		<g>
			<path fill="#AE1C1F" d="M63.846,109.249c30.707,0,55.601-23.597,55.601-52.706c0-29.108-24.894-52.705-55.601-52.705
				S8.245,27.436,8.245,56.544C8.245,85.652,33.139,109.249,63.846,109.249"/>
			<path fill="#6D6E71" d="M63.846,109.249c30.707,0,55.601-23.597,55.601-52.706c0-29.108-24.894-52.705-55.601-52.705
				S8.245,27.436,8.245,56.544C8.245,85.652,33.139,109.249,63.846,109.249"/>
			<ellipse fill="none" stroke="#AE1C1F" stroke-width="0.9953" cx="60.236" cy="60.972" rx="55.103" ry="53.813"/>
			
				<ellipse fill="none" stroke="#6D6E71" stroke-width="0.9953" stroke-miterlimit="10" cx="60.236" cy="60.972" rx="55.103" ry="53.813"/>
			<ellipse fill="none" stroke="#FFFFFF" stroke-width="0.9953" cx="60.165" cy="63.37" rx="56.601" ry="56.212"/>
			<path fill="#FFFFFF" d="M100.635,52.511c-5.945,0-10.79,2.278-14.535,6.833c-3.043,3.718-4.564,7.953-4.564,12.7
				c0,5.296,1.817,9.82,5.453,13.57c3.651,3.718,8.059,5.578,13.225,5.578c3.433,0,6.709-0.91,9.831-2.729v-6.784
				c-0.89,0.772-1.737,1.432-2.54,1.98c-0.804,0.547-1.58,0.981-2.329,1.304c-1.342,0.644-2.972,0.965-4.892,0.965
				c-3.713,0-6.85-1.344-9.409-4.032c-2.56-2.688-3.839-5.988-3.839-9.899c0-3.96,1.279-7.308,3.839-10.045
				c2.543-2.752,5.671-4.129,9.386-4.129c3.37,0,6.632,1.361,9.784,4.081v-6.665C107.017,53.421,103.881,52.511,100.635,52.511"/>
			<path fill="none" stroke="#FFFFFF" stroke-width="0.9953" d="M100.635,52.511c-5.945,0-10.79,2.278-14.535,6.833
				c-3.043,3.718-4.564,7.953-4.564,12.7c0,5.296,1.817,9.82,5.453,13.57c3.651,3.718,8.059,5.578,13.225,5.578
				c3.433,0,6.709-0.91,9.831-2.729v-6.784c-0.89,0.772-1.737,1.432-2.54,1.98c-0.804,0.547-1.58,0.981-2.329,1.304
				c-1.342,0.644-2.972,0.965-4.892,0.965c-3.713,0-6.85-1.344-9.409-4.032c-2.56-2.688-3.839-5.988-3.839-9.899
				c0-3.96,1.279-7.308,3.839-10.045c2.543-2.752,5.671-4.129,9.386-4.129c3.37,0,6.632,1.361,9.784,4.081v-6.665
				C107.017,53.421,103.881,52.511,100.635,52.511z"/>
		</g>
		<polygon fill="#FFFFFF" points="52.176,75.079 52.176,49.949 73.052,70.957 73.052,75.19 79.187,75.19 79.187,39.487 
			73.598,39.487 73.598,63.732 46.586,37.115 46.586,75.079 		"/>
		<polygon fill="none" stroke="#FFFFFF" stroke-width="0.9953" points="52.176,75.079 52.176,49.949 73.052,70.957 73.052,75.19 
			79.187,75.19 79.187,39.487 73.598,39.487 73.598,63.732 46.586,37.115 46.586,75.079 		"/>
		<g>
			<path fill="#FFFFFF" d="M16.26,27.416V50.69c0,3.809,1.184,6.946,3.554,9.413c2.651,2.747,5.917,4.121,9.799,4.121
				c3.883,0,7.156-1.374,9.822-4.121c2.37-2.466,3.555-5.604,3.555-9.413V27.416h-5.449v21.775c0,3.153-0.507,5.424-1.52,6.814
				c-1.512,2.076-3.648,3.114-6.408,3.114c-2.744,0-4.872-1.038-6.384-3.114c-1.014-1.436-1.52-3.708-1.52-6.814V27.416H16.26z"/>
			<path fill="none" stroke="#FFFFFF" stroke-width="0.9953" d="M16.26,27.416V50.69c0,3.809,1.184,6.946,3.554,9.413
				c2.651,2.747,5.917,4.121,9.799,4.121c3.883,0,7.156-1.374,9.822-4.121c2.37-2.466,3.555-5.604,3.555-9.413V27.416h-5.449v21.775
				c0,3.153-0.507,5.424-1.52,6.814c-1.512,2.076-3.648,3.114-6.408,3.114c-2.744,0-4.872-1.038-6.384-3.114
				c-1.014-1.436-1.52-3.708-1.52-6.814V27.416H16.26z"/>
			<path fill="#FFFFFF" d="M75.998,35.126c3.505,0,6.348-2.842,6.348-6.349c0-3.504-2.843-6.347-6.348-6.347
				c-3.505,0-6.348,2.843-6.348,6.347C69.65,32.285,72.493,35.126,75.998,35.126"/>
		</g>
		
			<line fill="none" stroke="#6D6E71" stroke-width="1.9906" stroke-miterlimit="10" x1="72.056" y1="50.039" x2="72.056" y2="85.553"/>
	</g>
</g>
</svg>
