<?xml version="1.0" encoding="utf-8"?>
<!-- Generator: Adobe Illustrator 17.0.0, SVG Export Plug-In . SVG Version: 6.00 Build 0)  -->
<!DOCTYPE svg PUBLIC "-//W3C//DTD SVG 1.1//EN" "http://www.w3.org/Graphics/SVG/1.1/DTD/svg11.dtd">
<svg version="1.1" id="Capa_1" xmlns="http://www.w3.org/2000/svg" xmlns:xlink="http://www.w3.org/1999/xlink" x="0px" y="0px"
	 width="440px" height="123.5px" viewBox="0 0 440 123.5" enable-background="new 0 0 440 123.5" xml:space="preserve">
<g>
	<g>
		<path fill="#AE1C1F" d="M63.179,111.476c30.707,0,55.6-23.597,55.6-52.705c0-29.108-24.893-52.704-55.6-52.704
			S7.579,29.663,7.579,58.771C7.579,87.879,32.472,111.476,63.179,111.476"/>
		<path fill="#AE1C1F" d="M63.179,111.476c30.707,0,55.6-23.597,55.6-52.705c0-29.108-24.893-52.704-55.6-52.704
			S7.579,29.663,7.579,58.771C7.579,87.879,32.472,111.476,63.179,111.476"/>
		<ellipse fill="none" stroke="#AE1C1F" stroke-width="0.9953" cx="59.569" cy="63.199" rx="55.103" ry="53.813"/>
		<ellipse fill="none" stroke="#AE1C1F" stroke-width="0.9953" cx="59.569" cy="63.199" rx="55.103" ry="53.813"/>
		<ellipse fill="none" stroke="#FFFFFF" stroke-width="0.9953" cx="59.498" cy="65.597" rx="56.601" ry="56.211"/>
		<path fill="#FFFFFF" d="M99.968,54.738c-5.945,0-10.79,2.278-14.535,6.833c-3.043,3.718-4.563,7.952-4.563,12.7
			c0,5.296,1.817,9.82,5.453,13.57c3.651,3.718,8.059,5.578,13.225,5.578c3.433,0,6.709-0.91,9.831-2.729v-6.784
			c-0.89,0.772-1.737,1.432-2.54,1.98c-0.804,0.547-1.58,0.981-2.329,1.304c-1.342,0.644-2.972,0.965-4.892,0.965
			c-3.713,0-6.85-1.344-9.409-4.032c-2.56-2.688-3.839-5.988-3.839-9.899c0-3.96,1.279-7.308,3.839-10.045
			c2.543-2.752,5.671-4.129,9.386-4.129c3.37,0,6.632,1.361,9.784,4.081v-6.665C106.35,55.648,103.214,54.738,99.968,54.738"/>
		<path fill="none" stroke="#FFFFFF" stroke-width="0.9953" d="M99.968,54.738c-5.945,0-10.79,2.278-14.535,6.833
			c-3.043,3.718-4.563,7.952-4.563,12.7c0,5.296,1.817,9.82,5.453,13.57c3.651,3.718,8.059,5.578,13.225,5.578
			c3.433,0,6.709-0.91,9.831-2.729v-6.784c-0.89,0.772-1.737,1.432-2.54,1.98c-0.804,0.547-1.58,0.981-2.329,1.304
			c-1.342,0.644-2.972,0.965-4.892,0.965c-3.713,0-6.85-1.344-9.409-4.032c-2.56-2.688-3.839-5.988-3.839-9.899
			c0-3.96,1.279-7.308,3.839-10.045c2.543-2.752,5.671-4.129,9.386-4.129c3.37,0,6.632,1.361,9.784,4.081v-6.665
			C106.35,55.648,103.214,54.738,99.968,54.738z"/>
	</g>
	<polygon fill="#FFFFFF" points="51.509,77.306 51.509,52.176 72.385,73.185 72.385,77.417 78.52,77.417 78.52,41.714 72.93,41.714 
		72.93,65.959 45.919,39.342 45.919,77.306 	"/>
	<polygon fill="none" stroke="#FFFFFF" stroke-width="0.9953" points="51.509,77.306 51.509,52.176 72.385,73.185 72.385,77.417 
		78.52,77.417 78.52,41.714 72.93,41.714 72.93,65.959 45.919,39.342 45.919,77.306 	"/>
	<g>
		<path fill="#FFFFFF" d="M15.594,29.644v23.274c0,3.809,1.184,6.946,3.554,9.413c2.65,2.747,5.917,4.121,9.799,4.121
			c3.883,0,7.156-1.374,9.822-4.121c2.37-2.466,3.555-5.604,3.555-9.413V29.644h-5.449v21.775c0,3.153-0.507,5.424-1.52,6.814
			c-1.512,2.076-3.648,3.114-6.408,3.114c-2.744,0-4.872-1.038-6.384-3.114c-1.014-1.436-1.52-3.708-1.52-6.814V29.644H15.594z"/>
		<path fill="none" stroke="#FFFFFF" stroke-width="0.9953" d="M15.594,29.644v23.274c0,3.809,1.184,6.946,3.554,9.413
			c2.65,2.747,5.917,4.121,9.799,4.121c3.883,0,7.156-1.374,9.822-4.121c2.37-2.466,3.555-5.604,3.555-9.413V29.644h-5.449v21.775
			c0,3.153-0.507,5.424-1.52,6.814c-1.512,2.076-3.648,3.114-6.408,3.114c-2.744,0-4.872-1.038-6.384-3.114
			c-1.014-1.436-1.52-3.708-1.52-6.814V29.644H15.594z"/>
		<path fill="#FFFFFF" d="M75.331,37.354c3.505,0,6.348-2.842,6.348-6.349c0-3.504-2.843-6.347-6.348-6.347
			c-3.505,0-6.348,2.843-6.348,6.347C68.983,34.512,71.826,37.354,75.331,37.354"/>
	</g>
	<line fill="none" stroke="#AE1C1F" stroke-width="1.9906" x1="71.389" y1="52.267" x2="71.389" y2="87.78"/>
	<g>
		<path fill="#222220" d="M136.091,28.871v11.561c0,3.883,1.505,5.677,3.775,5.677c2.434,0,3.884-1.794,3.884-5.677V28.871h3.364
			v11.325c0,6.119-2.927,8.826-7.358,8.826c-4.267,0-7.029-2.559-7.029-8.796V28.871H136.091z"/>
		<path fill="#222220" d="M150.588,38.637c0-1.647-0.028-3.03-0.11-4.266h2.954l0.164,2.148h0.082
			c0.574-1.118,2.024-2.471,4.24-2.471c2.325,0,4.732,1.618,4.732,6.148v8.502h-3.364v-8.09c0-2.059-0.711-3.618-2.544-3.618
			c-1.34,0-2.271,1.029-2.626,2.118c-0.109,0.324-0.137,0.765-0.137,1.177v8.413h-3.391V38.637z"/>
		<path fill="#222220" d="M169.571,30.371c0,1.089-0.738,1.942-1.914,1.942c-1.122,0-1.86-0.853-1.86-1.942
			c0-1.118,0.765-1.971,1.887-1.971C168.833,28.4,169.544,29.253,169.571,30.371z M165.988,48.698V34.372h3.391v14.326H165.988z"/>
		<path fill="#222220" d="M174.85,34.372l2.161,7.266c0.383,1.265,0.656,2.412,0.902,3.589h0.082
			c0.246-1.177,0.547-2.294,0.902-3.589l2.106-7.266h3.555l-5.087,14.326h-3.31l-4.951-14.326H174.85z"/>
		<path fill="#222220" d="M188.39,42.55c0.082,2.589,1.969,3.707,4.103,3.707c1.559,0,2.681-0.235,3.693-0.647l0.492,2.5
			c-1.149,0.5-2.735,0.883-4.65,0.883c-4.321,0-6.865-2.853-6.865-7.236c0-3.971,2.243-7.708,6.51-7.708
			c4.322,0,5.744,3.825,5.744,6.972c0,0.677-0.054,1.206-0.11,1.53H188.39z M194.243,40.02c0.028-1.324-0.52-3.501-2.762-3.501
			c-2.079,0-2.954,2.03-3.091,3.501H194.243z"/>
		<path fill="#222220" d="M199.878,38.991c0-1.942-0.027-3.324-0.109-4.619h2.927l0.109,2.736h0.11
			c0.656-2.03,2.215-3.06,3.638-3.06c0.328,0,0.519,0.03,0.793,0.088v3.413c-0.274-0.059-0.574-0.118-0.985-0.118
			c-1.614,0-2.708,1.118-3.009,2.736c-0.054,0.324-0.109,0.706-0.109,1.118v7.413h-3.365V38.991z"/>
		<path fill="#222220" d="M209.206,45.374c0.766,0.5,2.216,1.03,3.419,1.03c1.477,0,2.133-0.647,2.133-1.589
			c0-0.971-0.547-1.471-2.188-2.089c-2.599-0.971-3.693-2.5-3.665-4.177c0-2.53,1.942-4.501,5.033-4.501
			c1.476,0,2.762,0.412,3.528,0.853l-0.656,2.559c-0.574-0.353-1.642-0.824-2.818-0.824c-1.203,0-1.86,0.618-1.86,1.5
			c0,0.912,0.63,1.353,2.325,2c2.408,0.941,3.529,2.265,3.556,4.384c0,2.588-1.888,4.471-5.416,4.471c-1.613,0-3.064-0.412-4.048-1
			L209.206,45.374z"/>
		<path fill="#222220" d="M224.114,30.371c0,1.089-0.739,1.942-1.915,1.942c-1.122,0-1.86-0.853-1.86-1.942
			c0-1.118,0.766-1.971,1.888-1.971C223.375,28.4,224.086,29.253,224.114,30.371z M220.53,48.698V34.372h3.392v14.326H220.53z"/>
		<path fill="#222220" d="M239.54,27.812v16.856c0,1.471,0.055,3.059,0.11,4.03h-3.008l-0.137-2.265h-0.054
			c-0.794,1.589-2.408,2.589-4.35,2.589c-3.173,0-5.689-2.913-5.689-7.325c-0.027-4.795,2.762-7.649,5.963-7.649
			c1.832,0,3.145,0.824,3.747,1.883h0.054v-8.119H239.54z M236.176,40.344c0-0.294-0.027-0.647-0.082-0.941
			c-0.301-1.412-1.368-2.559-2.899-2.559c-2.161,0-3.364,2.059-3.364,4.736c0,2.618,1.203,4.53,3.337,4.53
			c1.368,0,2.571-1,2.899-2.559c0.082-0.324,0.109-0.676,0.109-1.059V40.344z"/>
		<path fill="#222220" d="M250.4,48.698l-0.219-1.589h-0.083c-0.82,1.118-2.215,1.912-3.938,1.912c-2.681,0-4.185-2.089-4.185-4.266
			c0-3.619,2.982-5.442,7.905-5.413v-0.235c0-0.941-0.356-2.5-2.708-2.5c-1.313,0-2.681,0.441-3.583,1.059l-0.657-2.354
			c0.985-0.647,2.708-1.265,4.814-1.265c4.267,0,5.497,2.913,5.497,6.031v5.178c0,1.294,0.055,2.559,0.191,3.442H250.4z
			 M249.962,41.697c-2.38-0.059-4.65,0.5-4.65,2.677c0,1.412,0.848,2.059,1.915,2.059c1.339,0,2.324-0.941,2.625-1.971
			c0.082-0.264,0.11-0.559,0.11-0.794V41.697z"/>
		<path fill="#222220" d="M268.835,27.812v16.856c0,1.471,0.055,3.059,0.11,4.03h-3.008l-0.137-2.265h-0.054
			c-0.794,1.589-2.408,2.589-4.35,2.589c-3.173,0-5.689-2.913-5.689-7.325c-0.027-4.795,2.762-7.649,5.963-7.649
			c1.832,0,3.145,0.824,3.747,1.883h0.054v-8.119H268.835z M265.471,40.344c0-0.294-0.027-0.647-0.082-0.941
			c-0.301-1.412-1.368-2.559-2.899-2.559c-2.161,0-3.364,2.059-3.364,4.736c0,2.618,1.203,4.53,3.337,4.53
			c1.368,0,2.571-1,2.899-2.559c0.082-0.324,0.109-0.676,0.109-1.059V40.344z"/>
		<path fill="#222220" d="M274.581,42.55c0.082,2.589,1.969,3.707,4.103,3.707c1.559,0,2.68-0.235,3.693-0.647l0.492,2.5
			c-1.149,0.5-2.735,0.883-4.65,0.883c-4.321,0-6.865-2.853-6.865-7.236c0-3.971,2.242-7.708,6.509-7.708
			c4.322,0,5.744,3.825,5.744,6.972c0,0.677-0.054,1.206-0.11,1.53H274.581z M280.435,40.02c0.027-1.324-0.52-3.501-2.763-3.501
			c-2.078,0-2.954,2.03-3.09,3.501H280.435z"/>
	</g>
	<g>
		<path fill="#222220" d="M294.003,28.871v19.827h-2.379V28.871H294.003z"/>
		<path fill="#222220" d="M298.078,38.314c0-1.471-0.027-2.677-0.109-3.853h2.133l0.136,2.353h0.055
			c0.656-1.353,2.188-2.677,4.376-2.677c1.833,0,4.677,1.177,4.677,6.06v8.502h-2.407v-8.207c0-2.295-0.793-4.207-3.064-4.207
			c-1.586,0-2.817,1.206-3.228,2.648c-0.109,0.323-0.163,0.764-0.163,1.206v8.561h-2.408V38.314z"/>
		<path fill="#222220" d="M315.776,30.371v4.089h3.447v1.971h-3.447v7.678c0,1.765,0.466,2.765,1.805,2.765
			c0.63,0,1.094-0.088,1.396-0.176l0.109,1.942c-0.465,0.206-1.203,0.353-2.133,0.353c-1.122,0-2.024-0.382-2.598-1.088
			c-0.684-0.765-0.93-2.03-0.93-3.707v-7.767h-2.051V34.46h2.051v-3.413L315.776,30.371z"/>
		<path fill="#222220" d="M322.832,42.05c0.054,3.501,2.133,4.942,4.54,4.942c1.723,0,2.763-0.324,3.665-0.735l0.41,1.853
			c-0.848,0.412-2.297,0.883-4.403,0.883c-4.075,0-6.51-2.883-6.51-7.178c0-4.295,2.352-7.678,6.209-7.678
			c4.321,0,5.47,4.089,5.47,6.707c0,0.53-0.054,0.941-0.082,1.206H322.832z M329.889,40.196c0.028-1.647-0.629-4.206-3.337-4.206
			c-2.434,0-3.501,2.412-3.693,4.206H329.889z"/>
		<path fill="#222220" d="M334.95,38.902c0-1.677-0.027-3.118-0.109-4.442h2.106l0.082,2.794h0.11
			c0.602-1.912,2.051-3.118,3.664-3.118c0.274,0,0.466,0.03,0.684,0.088v2.442c-0.246-0.059-0.493-0.088-0.82-0.088
			c-1.696,0-2.899,1.383-3.228,3.324c-0.054,0.353-0.11,0.765-0.11,1.206v7.59h-2.379V38.902z"/>
		<path fill="#222220" d="M343.758,38.314c0-1.471-0.027-2.677-0.109-3.853h2.133l0.136,2.353h0.055
			c0.656-1.353,2.188-2.677,4.376-2.677c1.833,0,4.677,1.177,4.677,6.06v8.502h-2.407v-8.207c0-2.295-0.793-4.207-3.064-4.207
			c-1.586,0-2.817,1.206-3.228,2.648c-0.109,0.323-0.163,0.764-0.163,1.206v8.561h-2.408V38.314z"/>
		<path fill="#222220" d="M365.996,48.698l-0.191-1.794h-0.082c-0.739,1.118-2.162,2.118-4.048,2.118
			c-2.681,0-4.048-2.03-4.048-4.089c0-3.442,2.845-5.324,7.96-5.295v-0.294c0-1.177-0.301-3.295-3.009-3.295
			c-1.231,0-2.516,0.412-3.446,1.059l-0.547-1.706c1.093-0.765,2.681-1.265,4.349-1.265c4.048,0,5.033,2.971,5.033,5.825v5.324
			c0,1.236,0.054,2.442,0.219,3.413H365.996z M365.64,41.432c-2.625-0.059-5.607,0.441-5.607,3.207c0,1.677,1.04,2.471,2.271,2.471
			c1.723,0,2.817-1.177,3.2-2.383c0.083-0.265,0.137-0.559,0.137-0.824V41.432z"/>
		<path fill="#222220" d="M381.04,48.168c-0.629,0.353-2.025,0.824-3.802,0.824c-3.993,0-6.592-2.912-6.592-7.266
			c0-4.383,2.791-7.56,7.112-7.56c1.422,0,2.681,0.382,3.337,0.735l-0.547,2c-0.574-0.353-1.476-0.676-2.79-0.676
			c-3.036,0-4.677,2.412-4.677,5.383c0,3.295,1.969,5.324,4.595,5.324c1.369,0,2.271-0.382,2.955-0.706L381.04,48.168z"/>
		<path fill="#222220" d="M386.265,30.46c0.027,0.883-0.574,1.588-1.532,1.588c-0.848,0-1.449-0.706-1.449-1.588
			c0-0.912,0.629-1.618,1.504-1.618C385.691,28.841,386.265,29.547,386.265,30.46z M383.584,48.698V34.46h2.408v14.238H383.584z"/>
		<path fill="#222220" d="M401.72,41.461c0,5.266-3.392,7.56-6.592,7.56c-3.583,0-6.346-2.824-6.346-7.325
			c0-4.766,2.899-7.561,6.565-7.561C399.149,34.137,401.72,37.108,401.72,41.461z M391.216,41.609c0,3.118,1.668,5.472,4.021,5.472
			c2.297,0,4.02-2.324,4.02-5.531c0-2.412-1.122-5.472-3.966-5.472C392.447,36.078,391.216,38.902,391.216,41.609z"/>
		<path fill="#222220" d="M404.482,38.314c0-1.471-0.027-2.677-0.109-3.853h2.133l0.136,2.353h0.055
			c0.656-1.353,2.188-2.677,4.376-2.677c1.833,0,4.677,1.177,4.677,6.06v8.502h-2.407v-8.207c0-2.295-0.793-4.207-3.064-4.207
			c-1.586,0-2.817,1.206-3.228,2.648c-0.109,0.323-0.163,0.764-0.163,1.206v8.561h-2.408V38.314z"/>
		<path fill="#222220" d="M426.721,48.698l-0.191-1.794h-0.082c-0.739,1.118-2.162,2.118-4.048,2.118
			c-2.681,0-4.048-2.03-4.048-4.089c0-3.442,2.845-5.324,7.96-5.295v-0.294c0-1.177-0.301-3.295-3.009-3.295
			c-1.23,0-2.516,0.412-3.446,1.059l-0.547-1.706c1.093-0.765,2.681-1.265,4.349-1.265c4.048,0,5.033,2.971,5.033,5.825v5.324
			c0,1.236,0.054,2.442,0.219,3.413H426.721z M426.365,41.432c-2.625-0.059-5.607,0.441-5.607,3.207c0,1.677,1.04,2.471,2.271,2.471
			c1.723,0,2.817-1.177,3.2-2.383c0.083-0.265,0.137-0.559,0.137-0.824V41.432z"/>
		<path fill="#222220" d="M432.328,27.812h2.408v20.886h-2.408V27.812z"/>
	</g>
	<g>
		<path fill="#222220" d="M145.025,59.884v16.933c0,1.245,0.029,2.663,0.116,3.619h-2.287l-0.116-2.432h-0.058
			c-0.782,1.564-2.49,2.751-4.776,2.751c-3.387,0-5.992-2.866-5.992-7.122c-0.029-4.66,2.866-7.526,6.281-7.526
			c2.142,0,3.589,1.013,4.227,2.142h0.058v-8.365H145.025z M142.478,72.128c0-0.319-0.029-0.753-0.116-1.071
			c-0.376-1.621-1.766-2.953-3.676-2.953c-2.634,0-4.197,2.316-4.197,5.413c0,2.837,1.389,5.182,4.14,5.182
			c1.708,0,3.271-1.128,3.734-3.039c0.087-0.347,0.116-0.695,0.116-1.1V72.128z"/>
		<path fill="#222220" d="M161.929,73.315c0,5.182-3.589,7.439-6.976,7.439c-3.792,0-6.716-2.779-6.716-7.208
			c0-4.689,3.069-7.439,6.947-7.439C159.209,66.107,161.929,69.03,161.929,73.315z M150.814,73.46c0,3.069,1.766,5.384,4.255,5.384
			c2.431,0,4.255-2.287,4.255-5.442c0-2.374-1.187-5.384-4.197-5.384C152.117,68.018,150.814,70.797,150.814,73.46z"/>
	</g>
	<g>
		<path fill="#AE1C1F" stroke="#AE1C1F" stroke-width="0.3292" stroke-miterlimit="10" d="M200.753,60.805v5.814
			c-3.036-2.373-6.176-3.56-9.422-3.56c-3.577,0-6.59,1.201-9.04,3.603c-2.464,2.387-3.696,5.309-3.696,8.763
			c0,3.414,1.232,6.292,3.696,8.638c2.464,2.347,5.486,3.519,9.063,3.519c1.848,0,3.418-0.281,4.711-0.843
			c0.721-0.281,1.469-0.66,2.242-1.139c0.775-0.476,1.59-1.052,2.446-1.727v5.92c-3.005,1.588-6.162,2.381-9.468,2.381
			c-4.974,0-9.221-1.622-12.736-4.867c-3.502-3.272-5.252-7.219-5.252-11.84c0-4.143,1.465-7.837,4.396-11.082
			c3.607-3.974,8.272-5.962,13.999-5.962C194.816,58.424,197.837,59.218,200.753,60.805z"/>
	</g>
	<g>
		<path fill="#222220" stroke="#222220" stroke-width="0.3292" stroke-miterlimit="10" d="M209.619,66.267v15.25
			c0,2.175,0.38,3.765,1.141,4.771c1.134,1.454,2.731,2.181,4.789,2.181c2.071,0,3.673-0.727,4.808-2.181
			c0.76-0.973,1.141-2.563,1.141-4.771v-15.25h4.087v16.299c0,2.667-0.889,4.864-2.666,6.592c-2.001,1.925-4.457,2.886-7.37,2.886
			c-2.912,0-5.362-0.962-7.351-2.886c-1.777-1.727-2.666-3.924-2.666-6.592V66.267H209.619z"/>
	</g>
	<g>
		<path fill="#222220" stroke="#222220" stroke-width="0.3292" stroke-miterlimit="10" d="M246.848,85.435h-11.596l-3.018,6.149
			h-4.404l13.404-26.907l12.93,26.907h-4.474L246.848,85.435z M245.182,81.845l-4.018-8.608l-4.211,8.608H245.182z"/>
	</g>
	<g>
		<path fill="#222220" stroke="#222220" stroke-width="0.3292" stroke-miterlimit="10" d="M257.561,91.585V64.546l19.755,19.315
			V66.267h4.089v26.859l-19.757-19.267v17.725H257.561z"/>
		<path fill="#222220" stroke="#222220" stroke-width="0.3292" stroke-miterlimit="10" d="M292.581,87.994h13.002v3.591h-19.721
			l13.3-21.727h-11.124v-3.591h17.843L292.581,87.994z"/>
	</g>
	<g>
		<path fill="#222220" stroke="#222220" stroke-width="0.3292" stroke-miterlimit="10" d="M326.258,85.435h-11.596l-3.018,6.149
			h-4.404l13.404-26.907l12.93,26.907H329.1L326.258,85.435z M324.592,81.845l-4.018-8.608l-4.211,8.608H324.592z"/>
	</g>
</g>
</svg>
