<svg width="57" height="58" viewBox="0 0 57 58" fill="none" xmlns="http://www.w3.org/2000/svg">
<g clip-path="url(#clip0_2688_21)">
<path d="M56.0996 28.3888C55.7537 29.5925 55.122 30.6948 54.2583 31.6018C51.7542 34.6859 49.3145 37.8161 46.7551 40.8082C45.9999 41.6189 45.4575 42.6041 45.1763 43.6757C44.8952 44.7473 44.884 45.8719 45.144 46.9489C45.3189 47.6946 45.4109 48.4679 45.5306 49.2321C45.5648 49.349 45.5737 49.4719 45.5565 49.5926C45.5394 49.7132 45.4968 49.8288 45.4314 49.9316C45.3661 50.0345 45.2795 50.1222 45.1775 50.1889C45.0756 50.2556 44.9605 50.2997 44.8401 50.3184C44.7264 50.3298 44.6115 50.3178 44.5026 50.2831C44.3937 50.2485 44.293 50.1919 44.2068 50.1169C44.1205 50.0418 44.0505 49.95 44.0011 49.8469C43.9517 49.7438 43.924 49.6317 43.9195 49.5175C43.7446 48.4403 43.5605 47.3632 43.3947 46.2768C43.228 45.2077 43.2965 44.1151 43.5954 43.0752C43.8943 42.0353 44.4165 41.0732 45.1255 40.2558C47.9887 36.7298 50.8335 33.1853 53.6967 29.65C54.232 29.015 54.5168 28.2063 54.4977 27.3761C54.4977 22.3862 54.4977 17.3871 54.4977 12.388C54.4977 11.5779 54.3319 11.4674 53.5218 11.6239C52.9663 11.7552 52.4733 12.0743 52.126 12.5272C51.7788 12.9802 51.5986 13.5392 51.6161 14.1096C51.6161 14.9566 51.6161 15.8036 51.6161 16.6414C51.6161 17.2674 51.2938 17.6449 50.7967 17.6265C50.2995 17.6081 50.0233 17.249 50.0049 16.7058C50.0049 16.3652 50.0049 16.0338 50.0049 15.6195L49.4986 15.8128C47.5928 16.7335 45.6871 17.5712 43.7906 18.4735C43.6157 18.5563 43.3947 18.7773 43.3947 18.9338C43.3947 21.309 43.3947 23.6843 43.3947 26.1424C43.5201 26.0547 43.64 25.9594 43.7538 25.857C44.4074 25.2218 45.0887 24.5957 45.7055 23.9237C46.1813 23.2622 46.8757 22.7903 47.6659 22.5914C48.4561 22.3926 49.2912 22.4797 50.0233 22.8373V21.1709C50.005 20.9565 50.005 20.7409 50.0233 20.5265C50.0313 20.427 50.0593 20.3302 50.1057 20.2419C50.1522 20.1536 50.2161 20.0757 50.2936 20.0129C50.3711 19.95 50.4605 19.9036 50.5565 19.8763C50.6525 19.8491 50.753 19.8416 50.8519 19.8544C50.9525 19.8503 51.0529 19.8675 51.1464 19.9047C51.24 19.9419 51.3247 19.9983 51.395 20.0704C51.4653 20.1424 51.5197 20.2285 51.5546 20.3229C51.5895 20.4174 51.6042 20.5181 51.5976 20.6186C51.5976 22.4598 51.6529 24.2459 51.5516 26.0595C51.4726 26.6817 51.2024 27.2639 50.7783 27.7259C48.6424 30.1288 46.4513 32.4764 44.2693 34.8425C44.2041 34.9405 44.1186 35.0235 44.0187 35.0859C43.9188 35.1483 43.8067 35.1887 43.69 35.2044C43.5732 35.2201 43.4545 35.2107 43.3417 35.1768C43.2289 35.143 43.1245 35.0855 43.0357 35.0082C42.6582 34.6675 42.6674 34.2072 43.1001 33.7377C45.1992 31.4453 47.3167 29.1345 49.3973 26.8513C49.6919 26.5229 49.8867 26.1173 49.9589 25.6821C50.0014 25.3881 49.9424 25.0884 49.7918 24.8324C49.6412 24.5763 49.4079 24.3792 49.1303 24.2735C48.8734 24.1217 48.5753 24.0542 48.2781 24.0807C47.9808 24.1071 47.6993 24.226 47.4732 24.4208C47.3027 24.5558 47.1427 24.7036 46.9944 24.8627C44.0238 27.8088 41.0502 30.7548 38.0734 33.7009C37.3607 34.3754 36.7967 35.1915 36.4178 36.0968C36.0389 37.0021 35.8534 37.9765 35.8731 38.9577C35.8731 42.3365 35.8731 45.7152 35.8731 49.0848C35.8823 49.2473 35.8823 49.4102 35.8731 49.5727C35.8595 49.7805 35.7689 49.9758 35.6192 50.1204C35.4694 50.2651 35.2711 50.3488 35.0629 50.3552C34.9541 50.3555 34.8465 50.3334 34.7466 50.2902C34.6468 50.247 34.5569 50.1837 34.4826 50.1042C34.4083 50.0247 34.3512 49.9308 34.3148 49.8282C34.2785 49.7257 34.2636 49.6168 34.2712 49.5083C34.2712 45.6692 34.2159 41.8209 34.2712 37.9726C34.3567 36.0613 35.1664 34.2542 36.536 32.9183C36.941 32.4948 37.3922 32.1174 37.8249 31.7123L37.7512 31.5926H19.1819L19.053 31.7307C19.2832 31.9148 19.5317 32.0805 19.7435 32.2831C20.7801 33.1922 21.588 34.3328 22.1014 35.6124C22.6149 36.892 22.8195 38.2747 22.6987 39.6482C22.6987 40.2282 22.3673 40.5688 21.8886 40.5688C21.4098 40.5688 21.1152 40.2006 21.0784 39.6482C21.0635 38.8444 21.0021 38.042 20.8943 37.2453C20.6299 35.9824 19.9877 34.8297 19.053 33.9402C15.9474 30.8714 12.8448 27.8026 9.74532 24.7338C9.61246 24.5622 9.44476 24.4206 9.25326 24.3184C9.06176 24.2163 8.85079 24.1558 8.63424 24.141C8.4177 24.1262 8.20047 24.1575 7.99686 24.2327C7.79325 24.3079 7.60787 24.4253 7.45292 24.5773C7.29872 24.7281 7.17754 24.9093 7.0971 25.1094C7.01665 25.3095 6.97869 25.5241 6.98561 25.7397C6.99254 25.9553 7.04421 26.167 7.13733 26.3616C7.23046 26.5561 7.36301 26.7291 7.52657 26.8697C9.5796 29.1161 11.6326 31.344 13.6857 33.5812C14.2933 34.244 14.3669 34.6767 13.9434 35.0634C13.5199 35.4501 13.0688 35.3028 12.4888 34.6675C10.4542 32.458 8.43801 30.2393 6.38498 28.0481C6.0425 27.6934 5.77474 27.2734 5.59761 26.8132C5.42049 26.353 5.3376 25.8619 5.35386 25.3691C5.35386 21.6865 5.35386 18.0039 5.35386 14.3214C5.40411 13.6863 5.20863 13.0562 4.80775 12.5611C4.40686 12.066 3.83119 11.7437 3.19956 11.6607C2.684 11.5963 2.50908 11.7344 2.50908 12.2683V27.7535C2.53367 28.4341 2.79403 29.085 3.24559 29.5948C6.05355 33.0564 8.76944 36.5548 11.6603 39.9796C12.5217 40.9405 13.1389 42.0948 13.4594 43.3449C13.7799 44.5949 13.7944 45.9038 13.5015 47.1606C13.3358 47.9432 13.2437 48.7533 13.1056 49.5451C13.0136 50.0883 12.6453 50.4013 12.185 50.3276C12.0686 50.3109 11.957 50.2696 11.8577 50.2065C11.7585 50.1433 11.6738 50.0598 11.6094 49.9614C11.5449 49.8629 11.5022 49.7519 11.484 49.6357C11.4657 49.5195 11.4725 49.4007 11.5037 49.2873C11.6418 48.3667 11.7707 47.446 11.9548 46.4701C12.1538 45.5633 12.1385 44.6226 11.9099 43.7228C11.6814 42.8229 11.246 41.9889 10.6383 41.2869C7.87642 37.8898 5.11449 34.4466 2.35257 31.0678C1.35765 29.9215 0.831637 28.4421 0.879542 26.9249C0.93478 22.0916 0.943986 17.2582 0.879542 12.4249C0.832151 12.0318 0.89038 11.6331 1.04823 11.27C1.20608 10.9069 1.45784 10.5924 1.77761 10.3589C2.09738 10.1254 2.47361 9.98132 2.86755 9.94152C3.2615 9.90173 3.65892 9.96763 4.01893 10.1325C4.34416 10.2032 4.65531 10.3276 4.93957 10.5007C5.09181 10.6036 5.27137 10.6586 5.45513 10.6586C5.63889 10.6586 5.81844 10.6036 5.97068 10.5007C7.21355 9.89309 8.47483 9.3315 9.7269 8.7515C10.3437 8.4661 10.7949 8.57657 11.0158 9.05531C11.2368 9.53404 11.0158 9.97595 10.399 10.2245L6.63355 11.9737C6.77164 12.5261 6.90053 13.0509 7.04783 13.5572C7.06366 13.616 7.09146 13.6709 7.12948 13.7184C7.1675 13.7659 7.21493 13.8051 7.26879 13.8334L13.7133 16.8255C13.8422 14.9842 15.0298 13.9163 16.4752 13.143C17.2762 12.7103 18.1508 12.4341 18.9885 12.0566C19.1451 11.9829 19.3752 11.808 19.3752 11.6699C19.3752 9.82865 19.3752 7.98736 19.3752 6.09085L18.8413 6.3118C17.2854 7.0299 15.7295 7.77562 14.146 8.45689C13.9962 8.50918 13.8373 8.53043 13.679 8.51935C13.5208 8.50827 13.3664 8.46509 13.2253 8.39245C13.1244 8.30023 13.0467 8.18541 12.9987 8.05738C12.9507 7.92936 12.9337 7.79179 12.9491 7.65594C12.9893 7.5226 13.0555 7.39858 13.144 7.29111C13.2325 7.18363 13.3415 7.09483 13.4647 7.0299C18.074 4.8756 22.6957 2.72744 27.3296 0.585414C27.768 0.39253 28.2447 0.302219 28.7233 0.321364C29.2019 0.340508 29.6698 0.468602 30.0915 0.69589C33.0191 2.06764 35.956 3.45781 38.8836 4.77433L51.2846 10.5283C51.4143 10.5946 51.5579 10.6292 51.7035 10.6292C51.8492 10.6292 51.9927 10.5946 52.1224 10.5283C52.7055 10.2543 53.326 10.0682 53.9637 9.97595C54.4528 9.93559 54.9404 10.071 55.3386 10.3579C55.7369 10.6448 56.0197 11.0643 56.1364 11.541L56.0996 28.3888ZM20.9311 13.235C20.9311 13.8242 20.9311 14.3674 20.9311 14.9014C20.9485 15.0028 20.9871 15.0994 21.0441 15.1851C21.1012 15.2707 21.1756 15.3434 21.2625 15.3985C21.7563 15.6238 22.1746 15.9869 22.4669 16.4442C22.7593 16.9015 22.9133 17.4336 22.9105 17.9763C22.9105 18.7865 22.9105 19.5966 22.9105 20.4068C22.9105 21.0697 22.6067 21.3274 21.9898 21.3274H18.3073C18.18 21.3462 18.0501 21.3358 17.9274 21.2969C17.8048 21.258 17.6926 21.1916 17.5994 21.1029C17.5062 21.0141 17.4345 20.9053 17.3896 20.7847C17.3448 20.6641 17.328 20.5349 17.3406 20.4068C17.3406 19.6887 17.3406 18.9706 17.3406 18.2525C17.2916 17.6468 17.434 17.041 17.7479 16.5206C18.0618 16.0003 18.5312 15.5917 19.0898 15.3525C19.1547 15.3209 19.2121 15.2758 19.2582 15.2202C19.3042 15.1647 19.3378 15.0999 19.3568 15.0303C19.3568 14.6068 19.3568 14.1741 19.3568 13.6769C18.0214 14.0005 16.7993 14.6816 15.8216 15.6471C15.5162 16.0374 15.3421 16.5144 15.3244 17.0096C15.2692 19.2008 15.3244 21.4011 15.3244 23.5922C15.3244 23.7395 15.3244 23.896 15.3244 24.071H34.5105C34.6884 24.0618 34.8666 24.0618 35.0445 24.071C35.2569 24.071 35.4607 24.1553 35.6109 24.3056C35.7611 24.4558 35.8455 24.6595 35.8455 24.8719C35.8455 25.0843 35.7611 25.2881 35.6109 25.4383C35.4607 25.5885 35.2569 25.6729 35.0445 25.6729C34.8636 25.6821 34.6823 25.6821 34.5013 25.6729H15.352C15.1495 26.9802 15.1955 28.131 16.3923 28.9135C16.6235 29.0817 16.8283 29.2833 17 29.5119C17.1184 29.6555 17.2699 29.7682 17.4415 29.8404C17.6131 29.9125 17.7996 29.942 17.985 29.9262C24.4295 29.9262 30.782 29.9262 37.1804 29.9262C37.9927 30.0483 38.8208 30.0139 39.6201 29.825C40.3658 29.5027 40.8814 28.6926 41.4614 28.0849C41.5199 28.0431 41.5726 27.9936 41.6179 27.9376C41.6743 27.8513 41.7119 27.7541 41.7284 27.6523C41.7284 27.0078 41.7284 26.3634 41.7284 25.6821H41.13C40.3382 25.6821 39.5557 25.6821 38.7639 25.6821C38.6554 25.6884 38.5466 25.6723 38.4446 25.6348C38.3425 25.5973 38.2493 25.5391 38.1707 25.464C38.0921 25.3888 38.0298 25.2983 37.9877 25.198C37.9456 25.0977 37.9247 24.9899 37.9261 24.8811C37.926 24.7728 37.9479 24.6655 37.9904 24.5659C38.033 24.4662 38.0953 24.3762 38.1736 24.3013C38.2519 24.2265 38.3446 24.1682 38.4461 24.1302C38.5476 24.0922 38.6557 24.0752 38.7639 24.0802C39.0125 24.0802 39.2611 24.0802 39.5188 24.0802H41.7652C41.7652 21.7509 41.7652 19.477 41.7652 17.2674C41.8016 16.8524 41.7218 16.4354 41.5349 16.0631C41.3479 15.6908 41.0611 15.3778 40.7065 15.1592C39.8133 14.5998 38.8665 14.131 37.8801 13.7598C34.785 12.8034 31.5525 12.3678 28.3146 12.4709C25.8323 12.4423 23.3549 12.6987 20.9311 13.235ZM50.4468 12.0198L49.9681 11.7804L45.1808 9.57087L29.4654 2.27939C29.2036 2.12681 28.9092 2.03886 28.6066 2.02285C28.304 2.00684 28.0019 2.06322 27.7254 2.18733C25.5987 3.20003 23.4629 4.17591 21.327 5.15179C21.1962 5.19701 21.0847 5.28553 21.011 5.40272C20.9374 5.51992 20.9059 5.65875 20.9219 5.79624C20.9219 7.55466 20.9219 9.3223 20.9219 11.0807C20.9219 11.228 20.9219 11.3845 20.9219 11.5226C21.8425 11.3937 22.6711 11.2372 23.5181 11.136C27.0704 10.7031 30.6642 10.7402 34.2067 11.2464C36.3865 11.4826 38.5066 12.1061 40.4671 13.0877C41.9493 13.8887 43.229 14.929 43.3303 16.7703C43.3731 16.7751 43.4163 16.7751 43.4592 16.7703C45.5398 15.8496 47.6297 14.8461 49.7011 13.8703C49.8353 13.7961 49.937 13.6747 49.9865 13.5296C50.1799 13.0601 50.2995 12.5814 50.4468 12.0198ZM7.04783 15.6471V22.7913L7.28721 22.7268C7.90733 22.4523 8.5989 22.3828 9.26124 22.5285C9.92359 22.6742 10.5221 23.0275 10.9698 23.537C11.6879 24.2643 12.4244 24.9824 13.1517 25.7005C13.2898 25.8478 13.4463 25.9767 13.6765 26.1884C13.6765 23.6659 13.6765 21.2814 13.6765 18.897C13.6765 18.7589 13.4831 18.5655 13.3358 18.4919C11.3748 17.5712 9.40468 16.6506 7.4253 15.73C7.30125 15.6948 7.1752 15.6671 7.04783 15.6471ZM18.9057 19.7255H21.2994C21.2994 19.0995 21.2994 18.5103 21.2994 17.8843C21.2923 17.5748 21.1655 17.2801 20.9458 17.0621C20.7261 16.8441 20.4304 16.7197 20.1209 16.715C19.8034 16.7174 19.4994 16.844 19.274 17.0677C19.0486 17.2913 18.9197 17.5944 18.9149 17.9119C18.8873 18.5287 18.9057 19.0995 18.9057 19.7255Z" fill="#AE1C1F"/>
<path d="M29.3055 54.1208C29.3055 55.0415 29.3055 56.0173 29.3055 56.9656C29.3055 57.5916 28.9832 57.9691 28.4953 57.9507C28.0074 57.9323 27.7035 57.5732 27.6943 57.03C27.6943 55.1274 27.6943 53.2278 27.6943 51.3313C27.6943 50.7052 28.0166 50.3462 28.5229 50.3554C29.0293 50.3646 29.3055 50.7144 29.3055 51.3589C29.3055 52.2611 29.3055 53.191 29.3055 54.1208Z" fill="#AE1C1F"/>
</g>
<defs>
<clipPath id="clip0_2688_21">
<rect width="55.2729" height="57.6325" fill="white" transform="translate(0.863525 0.318848)"/>
</clipPath>
</defs>
</svg>