<svg width="64" height="51" viewBox="0 0 64 51" fill="none" xmlns="http://www.w3.org/2000/svg">
<g clip-path="url(#clip0_2688_14)">
<path d="M24.0932 50.1367C22.7845 49.8794 21.5024 49.704 20.2664 49.3615C19.0304 49.0189 18.1211 48.2043 17.4874 47.0767C16.2976 44.9771 15.1161 42.871 13.8372 40.8222C12.7926 39.1487 12.725 37.4474 13.352 35.6576C14.1375 33.4171 15.5121 31.5338 17.0666 29.7752C20.7713 25.5842 25.2153 22.2914 29.9943 19.428C35.1759 16.3237 40.6149 13.7898 46.5259 12.3671C49.0326 11.764 51.5673 11.3608 54.1647 11.6705C56.3891 11.9377 58.1829 12.7965 59.2803 14.8994C60.3199 16.8908 61.4684 18.8331 62.6632 20.7392C63.7143 22.4143 63.7589 24.1222 63.1252 25.9054C62.2292 28.423 60.6202 30.4947 58.8347 32.4222C55.2753 36.2559 51.1069 39.3372 46.6365 42.0269C41.4202 45.1639 35.9531 47.7389 29.9976 49.1468C28.0668 49.6041 26.0734 49.8122 24.0932 50.1367ZM48.4863 38.8799L53.3891 35.238L51.729 32.3616L53.2142 31.5125L54.767 34.1464C56.1482 32.6713 57.4535 31.265 58.777 29.8719C59.0575 29.5785 59.0294 29.349 58.8248 29.0245C58.3298 28.2312 57.8809 27.4101 57.3892 26.566L58.8743 25.7202L60.1598 27.8772L60.381 27.91C60.8331 26.8036 61.3529 25.7202 61.716 24.586C61.858 24.1345 61.8964 23.657 61.8284 23.1888C61.7605 22.7206 61.5878 22.2734 61.3232 21.88C60.6714 20.8392 60.0839 19.7607 59.4634 18.7003C59.3908 18.5741 59.2984 18.4626 59.1681 18.2938C59.046 18.6216 58.9601 18.8708 58.8644 19.1133C57.7967 21.7915 56.0327 24.0009 54.0096 25.9972C46.7041 33.2089 38.0488 38.2129 28.2912 41.3713C25.4249 42.2973 22.4826 42.8988 19.4445 42.83C18.6194 42.8103 17.7944 42.6661 16.8835 42.5792C17.5435 43.7265 18.2894 44.7657 18.7861 45.9179C19.7086 48.0585 22.8489 48.4748 24.7565 48.1404L23.5354 45.9835L25.0206 45.1459C25.5321 46.0261 25.9892 46.8472 26.4876 47.6454C26.5915 47.8093 26.8737 48.0224 27.0272 47.9896C28.9678 47.5864 30.9002 47.1439 32.9415 46.6866L31.4167 44.0166L32.9019 43.1693L34.5785 46.0326L40.2057 43.6315L38.6792 40.9664L40.1644 40.1158L41.7602 42.8464L47.0309 39.8158L45.4533 37.0852L46.9385 36.2329L48.4863 38.8799ZM19.9083 41.2303C22.4868 41.0607 25.0354 40.5836 27.4992 39.8093C35.1577 37.4655 42.0473 33.6777 48.3312 28.777C51.2389 26.5086 53.9105 23.9943 55.9799 20.9097C56.7604 19.7476 57.4057 18.5216 57.6548 17.1236C57.9255 15.6058 57.3528 14.4011 55.9007 13.8734C54.9564 13.5346 53.9662 13.3384 52.9633 13.2915C50.488 13.1719 48.0919 13.6685 45.7289 14.329C38.8228 16.2582 32.5685 19.5231 26.7236 23.5961C23.1723 26.0726 19.8885 28.8524 17.2283 32.2911C16.1442 33.6908 15.1904 35.1692 14.7795 36.9197C14.3356 38.8095 15.0765 40.1682 16.9494 40.7074C17.9033 40.9959 18.9198 41.0664 19.9083 41.2303Z" fill="#AE1C1F"/>
<path d="M39.6709 13.7816C37.4811 12.3327 35.3688 10.8314 33.1592 9.49722C28.2235 6.506 23.0237 4.07861 17.3866 2.67725C14.8816 2.05442 12.3519 1.61844 9.75283 1.97411C9.67197 1.98558 9.58782 1.9905 9.50861 2.00525C6.69172 2.5199 5.71316 4.16712 6.70327 6.85348C7.48547 9.00715 8.87494 10.7871 10.3997 12.4622C13.8255 16.232 17.8833 19.215 22.2102 21.8669C22.4379 22.0062 22.6673 22.1423 22.8933 22.2849C22.9263 22.3045 22.9478 22.3439 23.0204 22.4275C22.895 22.6455 22.7597 22.8897 22.6194 23.1273C22.4791 23.365 22.3422 23.5797 22.1458 23.8993C20.4956 22.811 18.8454 21.7768 17.2579 20.659C13.8338 18.2545 10.6571 15.5665 8.00363 12.3163C6.68347 10.6904 5.54154 8.94815 4.86826 6.83545C4.72469 7.04033 4.61743 7.17309 4.53822 7.31896C3.94745 8.32532 3.39298 9.35298 2.76591 10.3364C2.47072 10.7709 2.28166 11.2679 2.21376 11.7877C2.14587 12.3075 2.20102 12.8359 2.37481 13.3309C2.73786 14.3979 3.23456 15.419 3.67186 16.4598L3.88805 16.4237L5.15869 14.2782L6.64387 15.1273C6.12406 16.0254 5.6257 16.8663 5.15869 17.7235C5.08113 17.8661 5.04317 18.1529 5.12898 18.2463C6.47554 19.7214 7.8452 21.1966 9.27262 22.7258L10.8139 20.0902L12.2991 20.9294L10.6291 23.8256L16.753 28.2821C16.4774 28.7049 16.1837 29.1589 15.8305 29.7031C14.3338 28.6377 12.8602 27.6412 11.436 26.566C8.13565 24.0632 5.06299 21.3211 2.69001 17.8939C1.58438 16.3024 0.658611 14.6159 0.47874 12.6409C0.376718 11.6164 0.608065 10.5864 1.13882 9.7021C2.35171 7.63857 3.61412 5.60454 4.7313 3.48365C5.82043 1.40701 7.57788 0.521936 9.78255 0.254775C12.8239 -0.114005 15.7744 0.428511 18.6771 1.23819C26.6822 3.48201 33.8424 7.37469 40.4366 12.3491C40.5078 12.4086 40.5756 12.4721 40.6396 12.5392C40.4597 12.7753 40.293 13.0014 40.1197 13.2244C39.9465 13.4473 39.7864 13.639 39.6709 13.7816Z" fill="#AE1C1F"/>
<path d="M36.2303 14.4012L35.2649 15.7779C34.4728 15.2617 33.7253 14.7601 32.9546 14.2832C28.2285 11.3214 23.3257 8.71048 18.0072 6.94853C16.5319 6.45683 14.9873 6.17328 13.4592 5.86514C12.9116 5.78182 12.3539 5.79013 11.809 5.88973C11.0879 5.99462 10.9146 6.29293 11.2199 6.96165C11.4971 7.56972 11.8041 8.21386 12.2645 8.67934C13.8041 10.2364 15.3421 11.8115 17.022 13.2112C19.8273 15.555 22.9396 17.4891 26.1195 19.3051C26.3126 19.4149 26.5024 19.5346 26.7532 19.6854C26.6096 19.9493 26.476 20.1918 26.3406 20.4344C26.2053 20.677 26.0799 20.8917 25.9215 21.167C25.3736 20.8524 24.8604 20.5639 24.3538 20.2656C20.2745 17.8579 16.3487 15.2387 12.9295 11.9476C12.0248 11.0555 11.188 10.0978 10.4262 9.08254C10.0166 8.52084 9.70632 7.89397 9.50865 7.22881C9.0532 5.79302 9.69678 4.58015 11.1853 4.30479C12.2543 4.11798 13.3468 4.10636 14.4196 4.27037C17.6375 4.75225 20.6359 5.9602 23.5832 7.27634C27.8579 9.19584 31.9555 11.4828 35.8293 14.1111C35.953 14.1865 36.0636 14.2782 36.2303 14.4012Z" fill="#AE1C1F"/>
<path d="M41.7782 8.15812V6.46337H43.9235V4.33264H45.6644V6.42895H47.8097V8.14173H45.6974V10.2872H43.9498C43.9498 9.7283 43.935 9.16612 43.9498 8.60557C43.9614 8.25974 43.831 8.13353 43.4845 8.14501C42.9366 8.17123 42.3855 8.15812 41.7782 8.15812Z" fill="#AE1C1F"/>
<path d="M5.39965 34.1006H3.25439V32.4091H5.36831V30.2489H7.11586C7.11586 30.8062 7.12741 31.3684 7.11586 31.9322C7.10596 32.2698 7.22313 32.4108 7.57792 32.3977C8.12744 32.3763 8.67859 32.3977 9.26111 32.3977V34.0859H7.14722V36.2166H5.40626L5.39965 34.1006Z" fill="#AE1C1F"/>
<path d="M20.9017 38.8996C20.6079 38.8669 20.1954 38.8488 19.7927 38.7718C18.0947 38.444 17.2729 37.1328 17.9247 35.5478C18.3476 34.5534 18.9146 33.6257 19.6079 32.7943C21.5221 30.4669 23.8786 28.6017 26.3209 26.8545C32.0719 22.7422 38.2023 19.315 44.8922 16.9335C46.7916 16.2566 48.724 15.6714 50.7537 15.5583C51.45 15.5133 52.1493 15.5685 52.8297 15.7222C54.3049 16.073 55.003 17.2465 54.4947 18.6561C54.1581 19.5738 53.6811 20.4346 53.0805 21.208C51.2999 23.5141 49.0458 25.3449 46.7074 27.0593C40.7667 31.4126 34.3986 34.9955 27.4365 37.4819C25.3622 38.2194 23.2466 38.8111 20.9017 38.8996ZM21.0667 37.3327C22.5882 36.982 24.1229 36.7509 25.575 36.2706C34.0455 33.4663 41.638 29.0868 48.4929 23.4322C50.0128 22.1767 51.4468 20.8098 52.4749 19.1035C53.3 17.7399 52.9848 17.1367 51.4006 17.2482C50.108 17.3186 48.8282 17.5386 47.587 17.9038C38.6875 20.6639 30.7896 25.2335 23.6592 31.1585C22.2367 32.3419 20.8951 33.6269 19.9413 35.2299C19.6789 35.6724 19.3868 36.3772 19.5667 36.723C19.7465 37.0688 20.504 37.1328 21.0634 37.3327H21.0667Z" fill="#AE1C1F"/>
</g>
<defs>
<clipPath id="clip0_2688_14">
<rect width="63.0952" height="50" fill="white" transform="translate(0.452393 0.135132)"/>
</clipPath>
</defs>
</svg>
