<svg width="54" height="51" viewBox="0 0 54 51" fill="none" xmlns="http://www.w3.org/2000/svg">
<path d="M30.4568 34.8187C28.5955 36.9194 26.743 38.8605 25.05 40.9435C23.0557 43.4164 21.1766 45.9869 19.3063 48.5574C18.9821 49.0677 18.5281 49.4827 17.9908 49.7599C17.4535 50.0371 16.8521 50.1666 16.2484 50.1351C15.7963 50.1351 15.362 50.1351 14.8922 50.1351C14.7625 50.1412 14.6329 50.1206 14.5114 50.0745C14.39 50.0285 14.2793 49.958 14.1863 49.8674C14.0932 49.7768 14.0197 49.6681 13.9704 49.548C13.921 49.4278 13.8969 49.2988 13.8995 49.169C13.8984 49.0422 13.9245 48.9167 13.9761 48.8009C14.0277 48.6851 14.1035 48.5817 14.1984 48.4977C14.2933 48.4137 14.4052 48.351 14.5264 48.3139C14.6476 48.2768 14.7754 48.2661 14.9011 48.2826H15.0074C17.507 48.2826 16.9309 48.5662 18.3756 46.5099C21.3593 42.2344 24.6789 38.2034 28.303 34.4553L28.8348 33.888C24.048 31.8906 20.1509 28.2204 17.8704 23.5618C17.7286 23.6593 17.5956 23.7391 17.4893 23.8277C13.0114 27.6265 8.19618 31.0087 3.10352 33.9323C2.8398 34.0628 2.61976 34.2672 2.47023 34.5206C2.32071 34.774 2.24818 35.0654 2.26148 35.3594C2.19077 38.0187 2.98209 40.6296 4.51728 42.8022C6.05248 44.9748 8.2492 46.5925 10.7795 47.414L11.2847 47.5735C11.409 47.6086 11.5248 47.6688 11.6251 47.7503C11.7253 47.8318 11.8078 47.9329 11.8676 48.0475C11.9274 48.162 11.9631 48.2875 11.9726 48.4164C11.9821 48.5452 11.9652 48.6746 11.9229 48.7967C11.8826 48.9194 11.8175 49.0325 11.7316 49.1289C11.6457 49.2253 11.5408 49.303 11.4235 49.357C11.3062 49.4111 11.1791 49.4404 11.0499 49.4431C10.9208 49.4458 10.7926 49.4219 10.6731 49.3728C8.88455 48.8593 7.21761 47.9912 5.77149 46.8201C3.98733 45.4274 2.56629 43.6241 1.62948 41.5637C0.692669 39.5034 0.267856 37.2471 0.391241 34.9871C0.406659 34.4366 0.568316 33.9002 0.859609 33.4329C1.1509 32.9656 1.56133 32.5842 2.04874 32.328C5.16876 30.3248 8.34196 28.3925 11.3556 26.2298C19.9632 20.0019 27.3137 12.2003 33.0184 3.23739C35.2255 -0.183984 38.8153 -0.246029 41.4301 0.489657C41.56 0.510173 41.6838 0.559371 41.7924 0.633683C41.901 0.707995 41.9917 0.80555 42.0579 0.919275C42.1241 1.033 42.1641 1.16004 42.1751 1.29117C42.1861 1.4223 42.1678 1.55423 42.1214 1.67739C42.0822 1.80637 42.0164 1.92572 41.9283 2.02776C41.8402 2.1298 41.7318 2.21228 41.6099 2.26988C41.488 2.32749 41.3554 2.35894 41.2206 2.36223C41.0859 2.36552 40.9519 2.34057 40.8273 2.28898C39.6346 1.91006 38.3585 1.87931 37.1489 2.20035L36.4575 2.4308C36.6791 2.64353 36.8298 2.79421 36.9894 2.93603L43.6814 9.1406C44.1204 9.49941 44.4402 9.98299 44.5984 10.5274C44.7567 11.0718 44.746 11.6515 44.5678 12.1897C44.3806 12.7246 44.078 13.2118 43.6814 13.6168C42.9812 14.3702 42.2012 15.0438 41.4035 15.7884C42.65 16.6339 44.0364 17.252 45.4985 17.6143C46.6542 17.9406 47.8734 17.9711 49.044 17.7029C49.7614 17.5379 50.4046 17.1411 50.874 16.574C51.3435 16.0068 51.613 15.3009 51.641 14.5652C51.6918 12.9758 51.289 11.4048 50.4799 10.0358C49.1722 7.70193 47.3128 5.72383 45.0642 4.27444C44.8801 4.16357 44.7025 4.04224 44.5323 3.91103C44.4327 3.84379 44.3477 3.75699 44.2827 3.65589C44.2176 3.55479 44.1738 3.44151 44.1539 3.32294C44.134 3.20437 44.1384 3.083 44.1669 2.9662C44.1954 2.8494 44.2474 2.73962 44.3196 2.64353C44.3826 2.54095 44.4658 2.45226 44.5642 2.38289C44.6625 2.31352 44.774 2.26492 44.8918 2.24004C45.0096 2.21515 45.1312 2.21452 45.2492 2.23818C45.3672 2.26183 45.4792 2.30927 45.5783 2.37762C49.2035 4.70876 52.0222 7.69582 53.2276 11.9681C53.548 12.8463 53.6657 13.7856 53.5721 14.7157C53.4785 15.6458 53.1759 16.5427 52.6869 17.3395C52.2359 18.0342 51.6289 18.6139 50.9142 19.0325C48.1121 20.5786 45.428 22.3295 42.8837 24.2709C40.978 25.6714 39.1521 27.1871 37.2907 28.6584C37.1666 28.7559 37.0603 28.8623 36.9007 29.013L40.783 31.4505C41.0401 31.6012 41.2882 31.7696 41.5364 31.9203C41.7315 32.0012 41.888 32.1539 41.9738 32.3468C42.0595 32.5398 42.068 32.7583 41.9973 32.9573C41.9202 33.1275 41.8088 33.2799 41.67 33.405C41.5312 33.53 41.368 33.6251 41.1907 33.6841C39.9232 33.9766 38.638 34.1982 37.3528 34.3755C36.883 34.4375 36.7766 34.6591 36.7146 35.0403C36.5285 36.2546 36.36 37.4689 36.1119 38.6655C36.0259 39.0294 35.8039 39.3466 35.4914 39.5519C35.0748 39.7823 34.6671 39.5519 34.348 39.1707L30.8025 35.2884C30.6873 35.1555 30.6164 35.0314 30.4568 34.8187ZM32.7348 7.19946C32.661 7.27405 32.5928 7.35404 32.5309 7.43878C30.0549 10.9161 27.3452 14.221 24.4207 17.3306C24.3152 17.4274 24.2494 17.56 24.2363 17.7025C24.2232 17.8451 24.2637 17.9874 24.3498 18.1018C26.4003 22.5052 30.0564 25.9583 34.5696 27.7543C34.7259 27.844 34.9076 27.8787 35.0859 27.853C35.2643 27.8273 35.4288 27.7426 35.5534 27.6125C38.7197 24.8991 42.0499 22.383 45.5251 20.0784C45.658 19.9897 45.7821 19.8745 45.8885 19.7947C39.2585 17.9156 34.605 14.0245 32.7348 7.19946ZM38.2746 32.2039L38.3632 32.0178C37.0439 31.1402 35.6669 30.3525 34.2416 29.66C29.8234 27.9825 26.0838 24.8911 23.6052 20.8672C23.2861 20.3266 22.9936 19.7682 22.7188 19.192L19.4393 22.3032C21.2649 26.5145 24.6054 29.8866 28.7993 31.7518C30.6196 32.5566 32.2301 33.7697 33.5059 35.2973C33.8162 35.6607 34.1619 35.9975 34.5696 36.4319C34.7469 35.3771 34.9064 34.473 35.0482 33.5512C35.0543 33.2832 35.1604 33.0272 35.3458 32.8336C35.5312 32.6401 35.7824 32.5229 36.0498 32.5053C36.7944 32.4698 37.53 32.328 38.2657 32.2039H38.2746ZM39.7814 14.7602L42.2101 12.4822C43.0078 11.7199 43.0078 11.2147 42.2101 10.4524L35.4825 4.13262C35.3584 4.01739 35.2255 3.91989 35.0659 3.78694C34.5548 4.71055 34.4093 5.79248 34.6582 6.81832C35.2609 10.1333 37.2996 12.5443 39.7726 14.7602H39.7814Z" fill="#AE1C1F"/>
</svg>
