<svg width="38" height="51" viewBox="0 0 38 51" fill="none" xmlns="http://www.w3.org/2000/svg">
<g clip-path="url(#clip0_2671_127)">
<path d="M3.45198 5.93488C3.38754 5.90601 3.32131 5.88148 3.25371 5.86147C1.67367 5.56782 0.98877 4.73581 0.982762 3.1085C0.982762 2.49673 0.982762 1.92779 0.982762 1.33437C0.982762 0.324948 1.15702 0.141418 2.14229 0.141418C9.79216 0.141418 17.44 0.141418 25.0859 0.141418C28.6905 0.141418 32.2952 0.141418 35.8698 0.141418C36.831 0.141418 37.0173 0.331066 37.0233 1.29155V3.16968C37.0233 4.74805 36.2783 5.61676 34.7403 5.86759C34.6869 5.87915 34.6347 5.89553 34.5841 5.91653C34.47 6.75466 34.3979 7.5989 34.2417 8.43091C33.4349 12.6693 31.2715 16.516 28.0898 19.3694C26.9387 20.3841 25.7355 21.3357 24.4851 22.2202C24.0792 22.4957 23.7359 22.8566 23.4782 23.2784C23.2206 23.7003 23.0546 24.1734 22.9915 24.666C22.9283 25.1585 22.9694 25.6592 23.112 26.1343C23.2546 26.6093 23.4954 27.0478 23.8182 27.4203C24.1665 27.7802 24.5558 28.0965 24.9777 28.3624C28.7085 30.9502 31.6223 34.2293 33.3105 38.5484C34.0002 40.2929 34.406 42.1402 34.5121 44.0176C34.5121 44.1216 34.512 44.2195 34.5541 44.3479L35.0107 44.4275C35.5226 44.5041 35.9947 44.7529 36.3518 45.1342C36.7089 45.5156 36.9304 46.0076 36.9812 46.532C37.0413 47.468 37.0173 48.4101 36.9812 49.3461C36.9853 49.4477 36.969 49.5491 36.9333 49.644C36.8975 49.739 36.8431 49.8255 36.7733 49.8982C36.7036 49.971 36.62 50.0284 36.5276 50.0671C36.4353 50.1058 36.3361 50.1248 36.2363 50.1231C36.0681 50.1231 35.8998 50.1231 35.7256 50.1231H2.23239C1.15099 50.1231 0.982762 49.9457 0.982762 48.8445C0.982762 48.2327 0.982762 47.6637 0.982762 47.0703C0.947046 46.4275 1.15139 45.7947 1.55475 45.2988C1.95812 44.803 2.53069 44.4808 3.1576 44.3969C3.23437 44.3692 3.30339 44.3231 3.35884 44.2624C3.41428 44.2016 3.45448 44.1282 3.47599 44.0482C3.89654 38.1262 6.70816 33.5318 11.0938 29.8123C11.7966 29.2297 12.5286 28.6845 13.2867 28.1789C15.6297 26.576 15.6417 23.6456 13.2867 22.0612C9.80827 19.8226 7.00711 16.6462 5.1942 12.8846C4.19546 10.7782 3.61757 8.49079 3.49403 6.15512C3.48202 6.1123 3.46399 6.02665 3.45198 5.93488ZM32.9801 5.93488H5.05604C5.05604 6.2163 5.05604 6.46101 5.05604 6.6996C5.29403 9.06803 6.01427 11.3599 7.17078 13.4291C8.93414 16.4697 11.3878 19.0354 14.326 20.911C15.015 21.3647 15.5822 21.986 15.9763 22.7188C16.3703 23.4516 16.5789 24.2729 16.583 25.1084C16.5872 25.9439 16.3869 26.7673 16.0002 27.5042C15.6134 28.2411 15.0525 28.8682 14.3681 29.329C13.8634 29.6838 13.3467 30.0203 12.8541 30.3996C9.24943 33.1464 6.63607 36.5907 5.5006 41.075C5.23025 42.1333 5.11611 43.2345 4.89983 44.3969C5.58471 44.3969 6.10139 44.3969 6.64209 44.3969C6.75731 44.4026 6.87137 44.3715 6.96833 44.3078C7.06529 44.2442 7.14027 44.1513 7.18277 44.0421C7.48152 43.5156 7.82961 43.0198 8.22213 42.5616C9.40954 41.3243 10.8435 40.3605 12.4276 39.7352C13.6652 39.203 14.9568 38.787 16.2064 38.2731C16.6575 38.1323 17.0762 37.9006 17.4374 37.5916C17.7987 37.2825 18.0951 36.9026 18.3091 36.4745C18.3851 36.3572 18.4874 36.26 18.6075 36.1909C18.7277 36.1217 18.8622 36.0826 19 36.0768C19.1361 36.0982 19.2658 36.1499 19.38 36.2281C19.4943 36.3064 19.5901 36.4093 19.6609 36.5295C19.9247 37.1026 20.3686 37.5698 20.9225 37.8571C21.5233 38.1752 22.2022 38.4199 22.845 38.6891C24.1547 39.2458 25.4944 39.723 26.756 40.3653C28.4976 41.1355 29.9357 42.4773 30.8413 44.1767C30.8833 44.2623 30.9795 44.3663 31.0516 44.3724C31.6524 44.3724 32.3012 44.3724 32.95 44.3724C32.95 44.0298 32.95 43.7607 32.908 43.5098C32.5755 40.4051 31.4325 37.4477 29.5977 34.945C27.97 32.742 25.9654 30.8561 23.6801 29.3779C22.9766 28.9236 22.3972 28.2956 21.9958 27.5523C21.5944 26.809 21.3839 25.9744 21.3839 25.1261C21.3839 24.2778 21.5944 23.4433 21.9958 22.7C22.3972 21.9567 22.9766 21.3287 23.6801 20.8743C23.9805 20.6724 24.2808 20.4705 24.5752 20.2625C28.0958 17.7176 30.7692 14.5058 32.157 10.2846C32.6384 8.87704 32.9157 7.40554 32.9801 5.91653V5.93488ZM2.55683 48.5569H35.4793V47.3334C35.4793 46.171 35.281 45.9691 34.1336 45.9691H3.96262C3.76262 45.9544 3.56184 45.9544 3.36185 45.9691C3.16081 45.9775 2.96974 46.0605 2.82473 46.2025C2.67972 46.3445 2.59082 46.5357 2.57483 46.74C2.52076 47.3395 2.55683 47.9268 2.55683 48.5386V48.5569ZM35.4733 1.77484H2.52078V2.91274C2.51178 3.08799 2.51178 3.26361 2.52078 3.43886C2.51839 3.55236 2.53815 3.66521 2.57897 3.77084C2.6198 3.87648 2.68084 3.9728 2.75854 4.0542C2.83624 4.13561 2.92907 4.20047 3.03161 4.24502C3.13415 4.28956 3.24435 4.31291 3.35583 4.31369C3.52794 4.32285 3.70042 4.32285 3.87253 4.31369H34.1095C34.2796 4.32291 34.4501 4.32291 34.6202 4.31369C34.7321 4.31459 34.8431 4.29239 34.9464 4.24844C35.0497 4.20448 35.1432 4.13967 35.2212 4.05792C35.2993 3.97617 35.3602 3.87917 35.4005 3.77278C35.4407 3.66638 35.4593 3.55279 35.4552 3.43886C35.4913 2.88215 35.4733 2.34379 35.4733 1.75649V1.77484ZM8.76882 44.2256L8.87094 44.3724H29.1291L29.2132 44.2562C28.7386 43.7974 28.3 43.2896 27.7954 42.8797C26.4413 41.8413 24.9238 41.0448 23.3076 40.5244C21.7816 39.9738 20.1956 39.57 19 38.3159C17.956 39.2718 16.6977 39.9524 15.3353 40.298C13.643 40.7996 12.0407 41.5741 10.5892 42.5922C9.94035 43.0571 9.3756 43.6567 8.76882 44.2072V44.2256Z" fill="#AE1C1F"/>
<path d="M19 10.9941H28.4863C29.5737 10.9941 29.874 11.5141 29.3333 12.4868C27.8468 15.1651 25.7362 17.4299 23.1874 19.0817C22.3068 19.6007 21.5459 20.3063 20.9561 21.1506C20.3664 21.995 19.9615 22.9584 19.769 23.9758C19.7538 24.1706 19.6666 24.3521 19.5249 24.4839C19.3833 24.6156 19.1978 24.6877 19.006 24.6855C18.8143 24.6924 18.6274 24.6238 18.4841 24.4939C18.3409 24.364 18.2524 24.1828 18.237 23.9881C18.0441 22.9716 17.6397 22.009 17.0511 21.1648C16.4626 20.3207 15.7034 19.6146 14.8246 19.0939C12.298 17.4656 10.2006 15.2331 8.71476 12.5908C8.11398 11.4896 8.37831 11.0063 9.60389 11.0063L19 10.9941ZM27.495 12.7315L27.3808 12.5969H10.6192C10.6118 12.6415 10.6118 12.687 10.6192 12.7315L10.8715 13.123C12.1064 14.9032 13.6594 16.4307 15.4494 17.6257C16.8919 18.5069 18.0908 19.7468 18.9339 21.229C18.9339 21.229 18.988 21.229 19.0661 21.2718C19.8591 19.6078 21.2289 18.5189 22.7068 17.5094C23.5429 16.9357 24.3234 16.2823 25.0378 15.5579C25.9149 14.6708 26.6839 13.6797 27.495 12.7315Z" fill="#AE1C1F"/>
<path d="M19.757 27.2182C19.766 27.373 19.766 27.5283 19.757 27.6831C19.7402 27.8749 19.6535 28.0534 19.5139 28.1833C19.3744 28.3133 19.1922 28.3854 19.0031 28.3854C18.814 28.3854 18.6317 28.3133 18.4922 28.1833C18.3526 28.0534 18.2659 27.8749 18.2491 27.6831C18.2191 27.3719 18.2191 27.0584 18.2491 26.7471C18.2497 26.651 18.2696 26.556 18.3077 26.468C18.3457 26.38 18.4011 26.3009 18.4703 26.2356C18.5396 26.1702 18.6212 26.12 18.7103 26.088C18.7993 26.0561 18.8939 26.043 18.988 26.0497C19.0818 26.0414 19.1763 26.0523 19.2659 26.0818C19.3554 26.1114 19.4383 26.159 19.5094 26.2217C19.5806 26.2845 19.6387 26.3612 19.6802 26.4472C19.7217 26.5333 19.7458 26.6269 19.751 26.7227C19.751 26.894 19.751 27.0714 19.751 27.2427L19.757 27.2182Z" fill="#AE1C1F"/>
<path d="M19.7692 31.3843C19.7692 31.47 19.7692 31.5556 19.7692 31.6413C19.7692 32.2531 19.4688 32.5895 18.9822 32.5773C18.4955 32.5651 18.2492 32.2408 18.2312 31.6596C18.2192 31.4355 18.2192 31.2108 18.2312 30.9867C18.2277 30.8821 18.2456 30.778 18.2839 30.6809C18.3221 30.5837 18.3798 30.4958 18.4533 30.4227C18.5268 30.3496 18.6145 30.2929 18.7107 30.2562C18.8069 30.2196 18.9096 30.2037 19.0122 30.2097C19.1107 30.2072 19.2087 30.2251 19.3002 30.2624C19.3917 30.2996 19.4748 30.3554 19.5445 30.4263C19.6142 30.4973 19.6689 30.5819 19.7055 30.6751C19.7421 30.7683 19.7596 30.868 19.7572 30.9683C19.7572 31.109 19.7572 31.2436 19.7572 31.3843H19.7692Z" fill="#AE1C1F"/>
</g>
<defs>
<clipPath id="clip0_2671_127">
<rect width="36.0465" height="50" fill="white" transform="translate(0.976807 0.135132)"/>
</clipPath>
</defs>
</svg>
